<svg id="facebook-logo" xmlns="http://www.w3.org/2000/svg" width="12.165" height="22.5" viewBox="0 0 12.165 22.5">
  <path id="Caminho_3" data-name="Caminho 3" d="M33.784,0,30.866,0c-3.278,0-5.4,2.173-5.4,5.537V8.09H22.536a.459.459,0,0,0-.459.459v3.7a.459.459,0,0,0,.459.459h2.934v9.334a.459.459,0,0,0,.459.459h3.828a.459.459,0,0,0,.459-.459V12.707h3.43a.459.459,0,0,0,.459-.459v-3.7a.459.459,0,0,0-.459-.459H30.215V5.926c0-1.04.248-1.568,1.6-1.568h1.966a.459.459,0,0,0,.459-.459V.463A.459.459,0,0,0,33.784,0Z" transform="translate(-22.077)" fill="#fff"/>
</svg>
