<svg id="twitter-logo-silhouette" xmlns="http://www.w3.org/2000/svg" width="27.296" height="22.172" viewBox="0 0 27.296 22.172">
  <g id="Agrupar_17" data-name="Agrupar 17" transform="translate(0 0)">
    <path id="Caminho_2" data-name="Caminho 2" d="M27.3,60.064a11.183,11.183,0,0,1-3.215.882,5.623,5.623,0,0,0,2.461-3.1,11.289,11.289,0,0,1-3.558,1.359,5.6,5.6,0,0,0-9.542,5.105A15.9,15.9,0,0,1,1.9,58.464a5.606,5.606,0,0,0,1.733,7.474,5.6,5.6,0,0,1-2.536-.7v.07A5.605,5.605,0,0,0,5.591,70.8a5.672,5.672,0,0,1-1.475.2,5.374,5.374,0,0,1-1.054-.1,5.6,5.6,0,0,0,5.23,3.889,11.235,11.235,0,0,1-6.954,2.393A11.9,11.9,0,0,1,0,77.094a15.828,15.828,0,0,0,8.583,2.519c10.3,0,15.931-8.532,15.931-15.931l-.019-.725A11.182,11.182,0,0,0,27.3,60.064Z" transform="translate(-0.001 -57.441)" fill="#fff"/>
  </g>
</svg>
