<svg xmlns="http://www.w3.org/2000/svg" width="708.891" height="229.33" viewBox="0 0 708.891 229.33">
  <g id="Agrupar_1589" data-name="Agrupar 1589" transform="translate(-62.646 -30.989)">
    <g id="Agrupar_1550" data-name="Agrupar 1550" transform="translate(62.646 30.989)">
      <g id="Agrupar_1501" data-name="Agrupar 1501" transform="translate(518.961)">
        <path id="Caminho_505" data-name="Caminho 505" d="M706.642,70.492l-16.834-9.633a13.9,13.9,0,0,0-13.789,0l-16.855,9.636a13.657,13.657,0,0,0-6.9,11.848v19.28a13.656,13.656,0,0,0,6.9,11.846l16.856,9.641a13.9,13.9,0,0,0,13.794,0l16.833-9.637a13.652,13.652,0,0,0,6.9-11.843V82.337A13.652,13.652,0,0,0,706.642,70.492Z" transform="translate(-587.949 -31.291)" fill="#72b42f"/>
        <path id="Caminho_506" data-name="Caminho 506" d="M749.417,146.55l-16.833-9.633a13.9,13.9,0,0,0-13.789,0l-16.856,9.636a13.657,13.657,0,0,0-6.9,11.848v19.28a13.655,13.655,0,0,0,6.9,11.846l16.855,9.641a13.9,13.9,0,0,0,13.794,0l16.834-9.637a13.655,13.655,0,0,0,6.9-11.843V158.395A13.653,13.653,0,0,0,749.417,146.55Z" transform="translate(-588.409 -32.109)" fill="#a3c424"/>
        <path id="Caminho_507" data-name="Caminho 507" d="M663.894,146.55l-16.834-9.633a13.9,13.9,0,0,0-13.789,0l-16.856,9.636a13.657,13.657,0,0,0-6.9,11.848v19.28a13.655,13.655,0,0,0,6.9,11.846l16.856,9.641a13.9,13.9,0,0,0,13.793,0l16.834-9.637a13.655,13.655,0,0,0,6.9-11.843V158.395A13.654,13.654,0,0,0,663.894,146.55Z" transform="translate(-587.489 -32.109)" fill="#34a437"/>
        <path id="Caminho_508" data-name="Caminho 508" d="M777.064,190.187c-.012-.083-.019-.166-.033-.249a10.01,10.01,0,0,0-1.523-3.885c-.036-.054-.072-.107-.109-.16a10.371,10.371,0,0,0-.8-1.021c-.016-.018-.028-.039-.045-.057s-.022-.021-.032-.032c-.228-.25-.47-.486-.721-.712l-.095-.088c-.237-.207-.485-.4-.741-.587-.032-.023-.061-.051-.093-.074a7.485,7.485,0,0,1-3.3-6.046l-.072-20.869a7.078,7.078,0,0,1,2.506-5.342,10.125,10.125,0,0,0-3.211-18.807,10.753,10.753,0,0,0-1.658-.16,10.347,10.347,0,0,0-5.05,1.114,7.228,7.228,0,0,1-5.924-.658l-17.928-10.938a7.389,7.389,0,0,1-3.388-5.174c0-.153,0-.306,0-.459a10.193,10.193,0,0,0-.093-1.036c-.012-.083-.019-.166-.033-.249a10.045,10.045,0,0,0-1.523-3.885c-.036-.054-.073-.107-.11-.16a10.332,10.332,0,0,0-.8-1.021c-.016-.018-.029-.039-.045-.057s-.023-.02-.033-.032c-.229-.25-.47-.486-.722-.712-.032-.029-.062-.059-.095-.088-.237-.207-.485-.4-.74-.587-.032-.023-.061-.051-.094-.074a7.484,7.484,0,0,1-3.3-6.046l-.072-20.869a7.08,7.08,0,0,1,2.5-5.342,10.125,10.125,0,0,0-3.21-18.807,10.767,10.767,0,0,0-1.658-.16,10.346,10.346,0,0,0-5.05,1.114,7.227,7.227,0,0,1-5.924-.658L695.92,46.376a7.488,7.488,0,0,1-3.485-5.942,10.192,10.192,0,0,0-8.87-9.363c-.047-.006-.093,0-.14-.009-.182-.022-.368-.026-.553-.038-.224-.014-.449-.035-.67-.035s-.447.021-.671.035c-.185.012-.371.016-.552.038-.047,0-.093,0-.141.009a10.187,10.187,0,0,0-8.87,9.363,7.492,7.492,0,0,1-3.486,5.942L650.554,57.314a7.331,7.331,0,0,1-6.73.363l-.053-.02a10.215,10.215,0,0,0-1.973-.605l-.158-.029a10.364,10.364,0,0,0-1.348-.156l-.047,0c-.242-.011-.484-.013-.726-.006l-.122.006a10.134,10.134,0,0,0-1.162.111c-.1.015-.208.025-.313.044-.042.007-.082.019-.125.027-.141.028-.283.058-.423.092-.281.066-.557.141-.828.23-.037.012-.074.021-.11.034a10.006,10.006,0,0,0-.961.388c-.073.034-.145.069-.218.1-.276.135-.545.279-.806.437-.043.026-.087.048-.13.075-.279.174-.545.365-.8.565q-.132.1-.261.208c-.247.2-.487.413-.713.636l-.1.1c-.238.242-.462.5-.676.764-.036.045-.073.089-.108.136a9.99,9.99,0,0,0-1.729,3.4c-.011.038-.024.075-.034.113-.081.3-.151.595-.2.9-.015.083-.016.164-.028.247-.031.2-.049.406-.067.61-.024.266-.038.529-.042.791,0,.169,0,.337.005.507a10.165,10.165,0,0,0,.093,1.035c.013.083.019.167.034.25a10.01,10.01,0,0,0,1.522,3.882c.036.055.074.108.111.162a10.2,10.2,0,0,0,.8,1.02c.016.018.028.039.044.056s.022.021.032.033c.229.25.472.488.725.715.031.027.059.056.09.083.238.209.489.4.746.591.031.023.059.049.09.071a7.488,7.488,0,0,1,3.3,6.047l.072,20.869a7.081,7.081,0,0,1-2.5,5.341,10.132,10.132,0,0,0-5.165,9.107,7.367,7.367,0,0,1-3.355,4.971l-17.928,10.938a7.331,7.331,0,0,1-6.73.363l-.053-.02a10.2,10.2,0,0,0-1.974-.605l-.158-.029a10.373,10.373,0,0,0-1.347-.156l-.047,0q-.363-.016-.726-.006l-.123.006a10.134,10.134,0,0,0-1.161.111c-.1.015-.208.025-.313.044-.043.007-.083.019-.125.027-.142.028-.283.058-.424.092-.28.066-.557.141-.828.231-.037.012-.073.021-.11.034a9.859,9.859,0,0,0-.96.388c-.073.034-.145.069-.219.1-.275.135-.544.279-.805.437-.044.026-.088.048-.131.075-.278.174-.544.365-.8.564-.088.068-.174.137-.26.209-.247.2-.488.413-.714.636-.035.035-.067.069-.1.1a10.1,10.1,0,0,0-.674.764c-.037.045-.073.089-.109.136a9.993,9.993,0,0,0-1.729,3.4c-.011.038-.023.075-.034.113-.08.3-.151.595-.2.9-.014.083-.015.164-.027.247-.031.2-.05.406-.068.61-.024.265-.039.529-.042.791,0,.169,0,.337,0,.507a10.22,10.22,0,0,0,.093,1.035c.012.083.019.167.033.25a10.028,10.028,0,0,0,1.523,3.882c.036.055.073.108.111.162a10.081,10.081,0,0,0,.8,1.02c.017.018.029.039.045.056l.033.033c.229.25.472.488.725.715.03.027.059.056.09.083.239.209.488.4.746.591.031.022.059.049.09.071a7.487,7.487,0,0,1,3.3,6.047l.072,20.868a7.08,7.08,0,0,1-2.5,5.342,10.125,10.125,0,0,0,3.209,18.808,10.867,10.867,0,0,0,1.657.159,10.354,10.354,0,0,0,5.052-1.114,7.222,7.222,0,0,1,5.922.659l17.928,10.937a7.491,7.491,0,0,1,3.486,5.943,10.185,10.185,0,0,0,8.87,9.362c.047.006.093,0,.14.01.182.021.368.025.552.037.224.014.45.035.671.035s.446-.021.671-.035c.184-.012.371-.016.552-.037.048-.006.093,0,.141-.01a10.186,10.186,0,0,0,8.87-9.362,7.493,7.493,0,0,1,3.486-5.943l17.928-10.937a7.2,7.2,0,0,1,5.759-.7,10.047,10.047,0,0,0,2.919,1,10.867,10.867,0,0,0,1.657.159c.048,0,.1,0,.144,0,.185,0,.37.01.555,0l.122-.006c.087,0,.172-.02.259-.025.163-.012.325-.028.488-.046.139-.016.28-.019.419-.041.1-.015.206-.025.31-.042.041-.007.081-.019.122-.027.143-.028.286-.058.428-.093q.414-.1.815-.227c.04-.014.081-.023.122-.037a10.17,10.17,0,0,0,.956-.387c.075-.034.149-.07.223-.107s.128-.07.193-.1a7.206,7.206,0,0,1,5.821.685L710.8,212.227a7.493,7.493,0,0,1,3.486,5.943,10.186,10.186,0,0,0,8.87,9.362c.048.006.093,0,.14.01.181.021.368.025.552.037.225.014.449.035.671.035s.446-.021.671-.035c.184-.012.37-.016.552-.037.047-.006.093,0,.141-.01a10.185,10.185,0,0,0,8.87-9.362,7.491,7.491,0,0,1,3.486-5.943l17.928-10.937a7.331,7.331,0,0,1,6.73-.364l.055.022a10.245,10.245,0,0,0,1.97.6c.053.011.108.02.161.03a10.383,10.383,0,0,0,1.348.156l.045,0c.242.01.484.012.726.006l.122-.006a10.417,10.417,0,0,0,1.165-.112c.1-.015.206-.025.31-.042.041-.007.081-.019.122-.027.143-.028.286-.058.428-.093q.414-.1.815-.227c.041-.014.081-.023.122-.037a10.146,10.146,0,0,0,.955-.387c.075-.034.148-.07.223-.107.271-.133.536-.275.793-.43.047-.028.1-.052.143-.082.276-.173.54-.362.8-.56.09-.069.179-.141.267-.213.24-.2.473-.4.694-.619l.121-.123c.235-.239.456-.493.667-.753l.116-.145a10,10,0,0,0,1.725-3.385c.012-.041.024-.081.036-.123.08-.295.151-.595.2-.9.014-.082.015-.162.027-.243.031-.2.049-.408.068-.612.024-.266.039-.528.042-.79,0-.169,0-.338,0-.508A10.212,10.212,0,0,0,777.064,190.187ZM645.661,75.331a10.362,10.362,0,0,0,1.163-.944l.029-.027a10.168,10.168,0,0,0,.956-1.038c.015-.018.03-.035.044-.052a10.093,10.093,0,0,0,1.492-2.592c.006-.016.015-.03.022-.045a9.823,9.823,0,0,0,.666-3.063,7.467,7.467,0,0,1,3.466-5.787l17.928-10.937a7.316,7.316,0,0,1,6.623-.4,9.958,9.958,0,0,0,2.07.65c.048.011.1.023.146.033.027,0,.052.012.079.017.1.017.2.027.3.041.143.022.284.045.429.059.1.011.193.017.29.024.156.013.311.026.47.031.125,0,.248,0,.372,0s.246,0,.371,0c.158,0,.313-.018.47-.031.1-.007.193-.013.291-.024.143-.015.285-.038.427-.059.1-.014.2-.024.3-.041.026,0,.051-.013.078-.017.049-.01.1-.022.146-.033a9.961,9.961,0,0,0,2.07-.65,7.316,7.316,0,0,1,6.623.4L710.9,61.783a7.344,7.344,0,0,1,3.322,4.836,10.139,10.139,0,0,0,2.594,7.168A10.324,10.324,0,0,0,718.5,75.28a7.488,7.488,0,0,1,3.3,6.047l.072,20.869a7.121,7.121,0,0,1-2.833,5.6,10.149,10.149,0,0,0-4.758,7.881,7.492,7.492,0,0,1-3.486,5.942L692.87,132.554a6.8,6.8,0,0,1-1.5.675,7.512,7.512,0,0,1-4.8-.233,10.081,10.081,0,0,0-2.092-.676c-.065-.014-.128-.036-.193-.049-.049-.01-.1-.023-.146-.032-.027,0-.053-.013-.078-.017-.1-.018-.2-.027-.3-.042-.142-.022-.284-.044-.427-.059-.1-.011-.194-.016-.291-.024-.156-.013-.312-.025-.47-.031-.125,0-.247,0-.371,0s-.247,0-.372,0c-.158.006-.313.018-.47.031-.1.008-.193.013-.29.024-.145.016-.286.038-.429.059-.1.015-.2.024-.3.042-.027,0-.052.012-.079.017-.049.009-.1.022-.146.032-.118.024-.23.061-.345.088l-.085.019c-.047.011-.094.028-.141.04-.2.052-.406.1-.6.168-.028.009-.056.014-.083.023s-.073.021-.11.034c-.188.063-.367.145-.549.222-.05.021-.1.036-.153.057a7.573,7.573,0,0,1-4.841.35,6.828,6.828,0,0,1-1.648-.716l-17.928-10.938a7.468,7.468,0,0,1-3.467-5.793,10.091,10.091,0,0,0-2.582-6.248,10.4,10.4,0,0,0-1.683-1.493,7.485,7.485,0,0,1-3.3-6.046l-.072-20.869A7.186,7.186,0,0,1,645.661,75.331Zm22.955,121.488-17.929,10.938a7.311,7.311,0,0,1-6.622.4,10.1,10.1,0,0,0-2.07-.65c-.049-.01-.1-.023-.147-.032-.026,0-.051-.013-.078-.017-.1-.018-.2-.027-.3-.042-.142-.022-.284-.043-.428-.059-.1-.011-.193-.016-.29-.024-.156-.013-.313-.025-.47-.031-.126,0-.248,0-.372,0s-.246,0-.371,0c-.158.006-.314.018-.471.031-.1.008-.193.013-.29.024-.144.016-.286.038-.427.059-.1.015-.2.024-.3.042-.027,0-.051.012-.078.017-.049.009-.1.022-.147.032a10.1,10.1,0,0,0-2.07.65,7.311,7.311,0,0,1-6.622-.4l-17.929-10.938a7.345,7.345,0,0,1-3.322-4.835,10.138,10.138,0,0,0-2.593-7.169,10.371,10.371,0,0,0-1.684-1.493,7.484,7.484,0,0,1-3.3-6.046l-.072-20.869a7.185,7.185,0,0,1,3.134-5.837,10.332,10.332,0,0,0,1.162-.943l.03-.027a10.42,10.42,0,0,0,.956-1.038l.042-.052a10.039,10.039,0,0,0,1.492-2.592c.007-.016.016-.03.022-.045a9.8,9.8,0,0,0,.667-3.063,7.466,7.466,0,0,1,3.465-5.787l17.929-10.937a7.276,7.276,0,0,1,6.408-.478,10.055,10.055,0,0,0,2.09.675c.065.015.128.037.194.049.049.01.1.023.147.033.027,0,.052.012.078.017.1.017.2.027.3.041.142.022.284.045.427.059.1.011.194.016.29.024.156.013.313.026.471.031.125,0,.247,0,.371,0s.247,0,.372,0c.157,0,.314-.018.47-.031.1-.008.193-.013.29-.024.144-.015.286-.038.428-.059.1-.014.2-.024.3-.041.027,0,.052-.013.078-.017.049-.01.1-.023.147-.033a9.976,9.976,0,0,0,2.07-.65,7.569,7.569,0,0,1,4.842-.349,6.8,6.8,0,0,1,1.646.716l17.929,10.937a7.391,7.391,0,0,1,3.388,5.175c0,.153,0,.307,0,.461a10.2,10.2,0,0,0,.093,1.035c.012.083.019.167.033.25a10.026,10.026,0,0,0,1.523,3.882c.036.055.073.108.11.162a10.225,10.225,0,0,0,.8,1.02c.016.018.028.039.045.056s.022.021.033.033c.228.25.472.488.724.715.031.027.06.056.091.083.238.209.488.4.745.591.031.022.059.049.091.071a7.487,7.487,0,0,1,3.3,6.047l.072,20.868a7.081,7.081,0,0,1-2.5,5.342,10.124,10.124,0,0,0-5.149,9.426A7.3,7.3,0,0,1,668.616,196.819Zm92.443-13.549a10.329,10.329,0,0,0-1.168.948l-.025.022a10.555,10.555,0,0,0-.961,1.044c-.013.016-.026.031-.038.046a10.056,10.056,0,0,0-1.5,2.6c-.006.013-.014.025-.019.038a9.806,9.806,0,0,0-.666,3.06,7.468,7.468,0,0,1-3.466,5.79l-17.929,10.938a7.311,7.311,0,0,1-6.622.4,10.1,10.1,0,0,0-2.071-.65c-.049-.01-.1-.023-.147-.032-.027,0-.051-.013-.078-.017-.1-.018-.2-.027-.3-.042-.142-.022-.284-.043-.428-.059-.1-.011-.194-.016-.29-.024-.156-.013-.313-.025-.471-.031-.125,0-.247,0-.371,0s-.247,0-.372,0c-.157.006-.314.018-.47.031-.1.008-.193.013-.29.024-.144.016-.286.038-.428.059-.1.015-.2.024-.3.042-.027,0-.052.012-.078.017-.05.009-.1.022-.148.032a10.1,10.1,0,0,0-2.07.65,7.312,7.312,0,0,1-6.622-.4l-17.929-10.938a7.316,7.316,0,0,1-3.276-4.662c.008-.142.021-.285.023-.426,0-.169,0-.338-.006-.508a9.922,9.922,0,0,0-.093-1.036c-.012-.083-.019-.166-.033-.249a10.01,10.01,0,0,0-1.523-3.885c-.036-.054-.072-.107-.109-.16a10.352,10.352,0,0,0-.8-1.021c-.017-.018-.029-.039-.045-.057s-.022-.021-.033-.032a9.946,9.946,0,0,0-.721-.712l-.095-.088c-.237-.207-.485-.4-.74-.587-.033-.023-.062-.051-.094-.074a7.485,7.485,0,0,1-3.3-6.046l-.072-20.869a7.077,7.077,0,0,1,2.506-5.342,10.13,10.13,0,0,0,5.163-9.106,7.366,7.366,0,0,1,3.354-4.972l17.929-10.937a6.844,6.844,0,0,1,1.5-.676,7.556,7.556,0,0,1,5.016.309,9.976,9.976,0,0,0,2.07.65c.049.01.1.023.148.033.026,0,.051.012.078.017.1.017.2.027.3.041.143.022.284.045.428.059.1.011.193.016.29.024.156.013.313.026.47.031.125,0,.248,0,.372,0s.246,0,.371,0c.158,0,.315-.018.471-.031.1-.008.193-.013.29-.024.144-.015.286-.038.428-.059.1-.014.2-.024.3-.041.027,0,.051-.013.078-.017.049-.01.1-.023.147-.033.117-.023.228-.06.344-.088l.086-.019c.049-.011.1-.028.145-.04.2-.052.4-.1.6-.167.024-.007.049-.012.072-.02.041-.014.082-.023.122-.037.19-.064.371-.147.555-.225.049-.02.1-.034.149-.055a7.314,7.314,0,0,1,6.622.4l17.929,10.937a7.347,7.347,0,0,1,3.322,4.836,10.134,10.134,0,0,0,2.593,7.168,10.364,10.364,0,0,0,1.684,1.493,7.49,7.49,0,0,1,3.3,6.047l.072,20.868A7.185,7.185,0,0,1,761.059,183.27Z" transform="translate(-587.25 -30.989)" fill="#fff"/>
      </g>
      <g id="Agrupar_1549" data-name="Agrupar 1549" transform="translate(0 48.462)">
        <g id="Agrupar_1547" data-name="Agrupar 1547" transform="translate(154.332 0)">
          <g id="Agrupar_1514" data-name="Agrupar 1514" transform="translate(0.001 81.021)">
            <g id="Agrupar_1503" data-name="Agrupar 1503" transform="translate(15.977 2.04)">
              <g id="Agrupar_1502" data-name="Agrupar 1502">
                <path id="Caminho_509" data-name="Caminho 509" d="M242.632,180.581a4.141,4.141,0,0,1-2.06-.545l-3.7-2.118a4.091,4.091,0,0,1-2.062-3.539v-4.236a4.09,4.09,0,0,1,2.063-3.54l3.7-2.117a4.165,4.165,0,0,1,4.119,0l3.7,2.116a4.089,4.089,0,0,1,2.062,3.539v4.237a4.09,4.09,0,0,1-2.061,3.539l-3.7,2.117A4.149,4.149,0,0,1,242.632,180.581Zm0-14.477a1.949,1.949,0,0,0-.968.256l-3.7,2.117a1.925,1.925,0,0,0-.97,1.666v4.236a1.925,1.925,0,0,0,.97,1.665l3.7,2.118a1.961,1.961,0,0,0,1.94,0l3.7-2.117a1.925,1.925,0,0,0,.97-1.666v-4.237a1.925,1.925,0,0,0-.97-1.665h0l-3.7-2.117A1.957,1.957,0,0,0,242.632,166.1Z" transform="translate(-234.808 -163.943)" fill="#fff"/>
              </g>
            </g>
            <path id="Caminho_510" data-name="Caminho 510" d="M230.184,165.606l-1.324-.757a2.141,2.141,0,0,0-1.06-.281h-9.143v15.4H227.8a2.141,2.141,0,0,0,1.06-.281l1.323-.757a4.078,4.078,0,0,0,2.063-3.54v-6.248A4.079,4.079,0,0,0,230.184,165.606Zm-.12,5.581v4.3h-.007a1.918,1.918,0,0,1-.964,1.57l-.93.531a1.646,1.646,0,0,1-.818.218h-6.507V166.73h6.507a1.658,1.658,0,0,1,.818.217l.929.532a1.919,1.919,0,0,1,.971,1.666Z" transform="translate(-218.657 -161.91)" fill="#fff"/>
            <g id="Agrupar_1505" data-name="Agrupar 1505" transform="translate(54.89 1.68)">
              <g id="Agrupar_1504" data-name="Agrupar 1504">
                <path id="Caminho_511" data-name="Caminho 511" d="M281.968,180.217a4.141,4.141,0,0,1-2.06-.545l-3.7-2.118a4.091,4.091,0,0,1-2.062-3.538V169.78a4.093,4.093,0,0,1,2.063-3.54l3.7-2.117a4.165,4.165,0,0,1,4.119,0l3.7,2.116a4.09,4.09,0,0,1,2.062,3.539v4.238a4.09,4.09,0,0,1-2.061,3.538l-3.7,2.117A4.149,4.149,0,0,1,281.968,180.217Zm0-14.477A1.949,1.949,0,0,0,281,166l-3.7,2.117a1.925,1.925,0,0,0-.971,1.666v4.236a1.926,1.926,0,0,0,.97,1.666L281,177.8a1.958,1.958,0,0,0,1.94,0l3.7-2.117a1.925,1.925,0,0,0,.97-1.665v-4.238a1.925,1.925,0,0,0-.97-1.665h0l-3.7-2.116A1.954,1.954,0,0,0,281.968,165.741Z" transform="translate(-274.144 -163.579)" fill="#fff"/>
              </g>
            </g>
            <path id="Caminho_512" data-name="Caminho 512" d="M303.99,172.222l-1.023-.586a3.41,3.41,0,0,0-1.691-.449h-4.5a1.2,1.2,0,0,1-.6-.159l-1.023-.586a1.189,1.189,0,0,1-.6-1.03v-.907a1.192,1.192,0,0,1,.6-1.031l1.023-.585a1.259,1.259,0,0,1,.659-.158h4.441a1.21,1.21,0,0,1,.6.159l1.024.586a1.191,1.191,0,0,1,.6,1.031h2.181a3.357,3.357,0,0,0-1.692-2.9l-1.023-.586a3.418,3.418,0,0,0-1.69-.448h-4.413a3.4,3.4,0,0,0-1.776.447l-1.024.585a3.359,3.359,0,0,0-1.693,2.9v.907a3.356,3.356,0,0,0,1.693,2.9l1.024.586a3.4,3.4,0,0,0,1.689.449h4.5a1.2,1.2,0,0,1,.6.159l1.024.585a1.193,1.193,0,0,1,.6,1.031v.907a1.191,1.191,0,0,1-.6,1.03l-1.024.586a1.226,1.226,0,0,1-.658.158h-4.441a1.216,1.216,0,0,1-.6-.159l-1.023-.586a1.19,1.19,0,0,1-.6-1.031h-2.182a3.358,3.358,0,0,0,1.693,2.9l1.023.586a3.417,3.417,0,0,0,1.69.448h4.5a3.407,3.407,0,0,0,1.69-.448l1.024-.586a3.355,3.355,0,0,0,1.692-2.9v-.907A3.355,3.355,0,0,0,303.99,172.222Z" transform="translate(-219.45 -161.91)" fill="#fff"/>
            <path id="Caminho_513" data-name="Caminho 513" d="M361.444,177.807a1.65,1.65,0,0,1-.819-.218l-.929-.531a1.919,1.919,0,0,1-.971-1.666V164.568h-2.181v10.824a4.077,4.077,0,0,0,2.062,3.539l1.324.757a2.132,2.132,0,0,0,1.06.282h6.648v-2.162Z" transform="translate(-220.14 -161.91)" fill="#fff"/>
            <rect id="Retângulo_2136" data-name="Retângulo 2136" width="2.182" height="15.402" transform="translate(103.595 2.658)" fill="#fff"/>
            <path id="Caminho_514" data-name="Caminho 514" d="M269.4,164.568v6.62h-9.249v-6.62h-2.182v15.4h2.182v-6.62H269.4v6.62h2.182v-15.4Z" transform="translate(-219.08 -161.91)" fill="#fff"/>
            <path id="Caminho_515" data-name="Caminho 515" d="M353.055,179.97h2.326l-5.042-13.56-.014-.035a2.922,2.922,0,0,0-2.715-1.807h-1.265a2.92,2.92,0,0,0-2.714,1.807l-5.056,13.594H340.9l1.379-3.709h9.4Zm-9.972-5.871,2.572-6.919a.747.747,0,0,1,.689-.449h1.265a.745.745,0,0,1,.689.449l2.573,6.919Z" transform="translate(-219.947 -161.91)" fill="#fff"/>
            <g id="Agrupar_1506" data-name="Agrupar 1506" transform="translate(88.618 2.658)">
              <path id="Caminho_516" data-name="Caminho 516" d="M319.53,165.96l-1.831-1.048a2.614,2.614,0,0,0-1.3-.344h-8.164v15.4h2.181v-5.453h6a2.583,2.583,0,0,0,1.281-.34l1.833-1.05a2.565,2.565,0,0,0,1.3-2.226v-2.716A2.564,2.564,0,0,0,319.53,165.96Zm-.885,4.942a.408.408,0,0,1-.2.352l-1.832,1.049a.416.416,0,0,1-.183.051h-6.006V166.73H316.4a.411.411,0,0,1,.2.054l1.832,1.048a.408.408,0,0,1,.2.352Z" transform="translate(-308.238 -164.568)" fill="#fff"/>
            </g>
            <path id="Caminho_517" data-name="Caminho 517" d="M340.728,164.568H328v2.163h5.43V179.97h2.182V166.73h5.118Z" transform="translate(-219.833 -161.91)" fill="#fff"/>
            <g id="Agrupar_1508" data-name="Agrupar 1508" transform="translate(185.119 2.04)">
              <g id="Agrupar_1507" data-name="Agrupar 1507">
                <path id="Caminho_518" data-name="Caminho 518" d="M413.613,180.581a4.14,4.14,0,0,1-2.06-.545l-3.7-2.118a4.089,4.089,0,0,1-2.062-3.539v-4.236a4.092,4.092,0,0,1,2.062-3.54l3.7-2.117a4.164,4.164,0,0,1,4.119,0l3.7,2.116a4.091,4.091,0,0,1,2.062,3.539v4.237a4.09,4.09,0,0,1-2.061,3.539l-3.7,2.117A4.144,4.144,0,0,1,413.613,180.581Zm0-14.477a1.953,1.953,0,0,0-.969.256l-3.7,2.117a1.925,1.925,0,0,0-.97,1.666v4.236a1.925,1.925,0,0,0,.97,1.665l3.7,2.118a1.959,1.959,0,0,0,1.939,0l3.7-2.117a1.924,1.924,0,0,0,.969-1.666v-4.237a1.924,1.924,0,0,0-.969-1.665h0l-3.7-2.117A1.95,1.95,0,0,0,413.613,166.1Z" transform="translate(-405.789 -163.943)" fill="#fff"/>
              </g>
            </g>
            <path id="Caminho_519" data-name="Caminho 519" d="M384.937,172.222l-1.024-.586a3.4,3.4,0,0,0-1.691-.449h-4.5a1.2,1.2,0,0,1-.6-.159l-1.024-.586a1.19,1.19,0,0,1-.6-1.03v-.907a1.192,1.192,0,0,1,.6-1.031l1.023-.585a1.259,1.259,0,0,1,.659-.158h4.44a1.21,1.21,0,0,1,.6.159l1.024.586a1.192,1.192,0,0,1,.6,1.031h2.181a3.357,3.357,0,0,0-1.692-2.9l-1.024-.586a3.411,3.411,0,0,0-1.689-.448h-4.413a3.408,3.408,0,0,0-1.777.447l-1.023.585a3.359,3.359,0,0,0-1.693,2.9v.907a3.357,3.357,0,0,0,1.692,2.9l1.024.586a3.409,3.409,0,0,0,1.69.449h4.5a1.2,1.2,0,0,1,.6.159l1.024.585a1.193,1.193,0,0,1,.6,1.031v.907a1.19,1.19,0,0,1-.6,1.03l-1.023.586a1.229,1.229,0,0,1-.659.158h-4.44a1.213,1.213,0,0,1-.6-.159l-1.024-.586a1.191,1.191,0,0,1-.6-1.031h-2.182a3.359,3.359,0,0,0,1.692,2.9l1.024.586a3.415,3.415,0,0,0,1.69.448h4.5a3.407,3.407,0,0,0,1.69-.448l1.024-.586a3.355,3.355,0,0,0,1.692-2.9v-.907A3.355,3.355,0,0,0,384.937,172.222Z" transform="translate(-220.32 -161.91)" fill="#fff"/>
            <g id="Agrupar_1509" data-name="Agrupar 1509" transform="translate(167.664)">
              <path id="Caminho_520" data-name="Caminho 520" d="M399.907,166.41l-.014-.035a2.92,2.92,0,0,0-2.714-1.807h-1.266a2.923,2.923,0,0,0-2.715,1.807l-5.055,13.594h2.325l1.38-3.709h9.4l1.379,3.709h2.325Zm-7.255,7.688,2.573-6.919a.746.746,0,0,1,.689-.449h1.266a.746.746,0,0,1,.689.449l2.573,6.919Z" transform="translate(-388.144 -161.91)" fill="#fff"/>
              <rect id="Retângulo_2137" data-name="Retângulo 2137" width="4.958" height="1.683" transform="translate(5.924)" fill="#fff"/>
            </g>
            <g id="Agrupar_1511" data-name="Agrupar 1511" transform="translate(224.009 2.04)">
              <g id="Agrupar_1510" data-name="Agrupar 1510">
                <path id="Caminho_521" data-name="Caminho 521" d="M452.925,180.581a4.141,4.141,0,0,1-2.06-.545l-3.7-2.118a4.091,4.091,0,0,1-2.062-3.539v-4.236a4.09,4.09,0,0,1,2.063-3.54l3.7-2.117a4.164,4.164,0,0,1,4.119,0l3.7,2.116a4.091,4.091,0,0,1,2.062,3.539v4.237a4.09,4.09,0,0,1-2.061,3.539l-3.7,2.117A4.149,4.149,0,0,1,452.925,180.581Zm0-14.477a1.949,1.949,0,0,0-.969.256l-3.7,2.117a1.925,1.925,0,0,0-.971,1.666v4.236a1.925,1.925,0,0,0,.971,1.665l3.7,2.118a1.961,1.961,0,0,0,1.94,0l3.7-2.117a1.924,1.924,0,0,0,.97-1.666v-4.237a1.924,1.924,0,0,0-.97-1.665h0l-3.7-2.117A1.956,1.956,0,0,0,452.925,166.1Z" transform="translate(-445.101 -163.943)" fill="#fff"/>
              </g>
            </g>
            <g id="Agrupar_1513" data-name="Agrupar 1513" transform="translate(302.433 2.04)">
              <g id="Agrupar_1512" data-name="Agrupar 1512">
                <path id="Caminho_522" data-name="Caminho 522" d="M532.2,180.581a4.141,4.141,0,0,1-2.06-.545l-3.7-2.118a4.089,4.089,0,0,1-2.062-3.539v-4.236a4.091,4.091,0,0,1,2.062-3.54l3.7-2.117a4.164,4.164,0,0,1,4.119,0l3.7,2.116a4.091,4.091,0,0,1,2.062,3.539v4.237a4.09,4.09,0,0,1-2.06,3.539l-3.7,2.117A4.145,4.145,0,0,1,532.2,180.581Zm0-14.477a1.952,1.952,0,0,0-.969.256l-3.7,2.117a1.925,1.925,0,0,0-.971,1.666v4.236a1.925,1.925,0,0,0,.971,1.665l3.7,2.118a1.959,1.959,0,0,0,1.939,0l3.7-2.117a1.924,1.924,0,0,0,.969-1.666v-4.237a1.924,1.924,0,0,0-.969-1.665h0l-3.7-2.117A1.949,1.949,0,0,0,532.2,166.1Z" transform="translate(-524.378 -163.943)" fill="#fff"/>
              </g>
            </g>
            <path id="Caminho_523" data-name="Caminho 523" d="M501.388,164.568v12.687a.554.554,0,0,1-.556.552h-.55a.557.557,0,0,1-.51-.33l-2.584-5.208h0l-3.075-6.313a2.342,2.342,0,0,0-2.144-1.387h-1.2a2.332,2.332,0,0,0-2.343,2.322v13.08H490.6V167.283a.554.554,0,0,1,.556-.552h.551a.557.557,0,0,1,.509.329l2.584,5.208h0l3.075,6.314a2.343,2.343,0,0,0,2.144,1.387h1.2a2.332,2.332,0,0,0,2.343-2.322v-13.08Z" transform="translate(-221.558 -161.91)" fill="#fff"/>
            <path id="Caminho_524" data-name="Caminho 524" d="M521.793,170.485v-.342a4.09,4.09,0,0,0-2.061-3.539l-3.7-2.116a4.165,4.165,0,0,0-4.119,0l-3.7,2.117a4.09,4.09,0,0,0-2.063,3.54v4.236a4.09,4.09,0,0,0,2.063,3.539l3.7,2.118a4.164,4.164,0,0,0,4.121,0l3.7-2.117a4.091,4.091,0,0,0,2.06-3.539v-2.41h-6.754v2.152h4.572v.258a1.926,1.926,0,0,1-.969,1.666l-3.7,2.117a1.959,1.959,0,0,1-1.939,0l-3.7-2.118a1.923,1.923,0,0,1-.97-1.665v-4.236a1.925,1.925,0,0,1,.97-1.666l3.7-2.117a1.962,1.962,0,0,1,1.939,0l3.7,2.117a1.925,1.925,0,0,1,.97,1.665v.342Z" transform="translate(-221.749 -161.903)" fill="#fff"/>
            <path id="Caminho_525" data-name="Caminho 525" d="M554.224,172.222l-1.024-.586a3.4,3.4,0,0,0-1.691-.449h-4.5a1.2,1.2,0,0,1-.6-.159l-1.024-.586a1.19,1.19,0,0,1-.6-1.03v-.907a1.192,1.192,0,0,1,.6-1.031l1.023-.585a1.259,1.259,0,0,1,.659-.158h4.44a1.211,1.211,0,0,1,.6.159l1.024.586a1.19,1.19,0,0,1,.6,1.031h2.182a3.357,3.357,0,0,0-1.692-2.9l-1.024-.586a3.412,3.412,0,0,0-1.689-.448H547.1a3.408,3.408,0,0,0-1.777.447l-1.023.585a3.359,3.359,0,0,0-1.693,2.9v.907a3.357,3.357,0,0,0,1.692,2.9l1.024.586a3.408,3.408,0,0,0,1.69.449h4.5a1.2,1.2,0,0,1,.6.159l1.024.585a1.192,1.192,0,0,1,.6,1.031v.907a1.189,1.189,0,0,1-.6,1.03l-1.023.586a1.232,1.232,0,0,1-.659.158h-4.44a1.213,1.213,0,0,1-.6-.159l-1.024-.586a1.191,1.191,0,0,1-.6-1.031h-2.182a3.359,3.359,0,0,0,1.692,2.9l1.024.586a3.414,3.414,0,0,0,1.69.448h4.5a3.407,3.407,0,0,0,1.69-.448l1.024-.586a3.355,3.355,0,0,0,1.692-2.9v-.907A3.355,3.355,0,0,0,554.224,172.222Z" transform="translate(-222.141 -161.91)" fill="#fff"/>
            <path id="Caminho_526" data-name="Caminho 526" d="M440.477,165.606l-1.324-.757a2.142,2.142,0,0,0-1.06-.281H428.95v15.4h9.143a2.141,2.141,0,0,0,1.06-.281l1.323-.757a4.079,4.079,0,0,0,2.063-3.54v-6.248A4.079,4.079,0,0,0,440.477,165.606Zm-.12,5.581v4.3h-.007a1.918,1.918,0,0,1-.964,1.57l-.93.531a1.649,1.649,0,0,1-.818.218h-6.507V166.73h6.507a1.659,1.659,0,0,1,.818.217l.929.532a1.919,1.919,0,0,1,.971,1.666Z" transform="translate(-220.919 -161.91)" fill="#fff"/>
            <rect id="Retângulo_2138" data-name="Retângulo 2138" width="2.182" height="15.402" transform="translate(262.216 2.658)" fill="#fff"/>
            <path id="Caminho_527" data-name="Caminho 527" d="M478.773,164.568h-1.2a2.343,2.343,0,0,0-2.144,1.387l-3.2,10.236-3.2-10.236a2.342,2.342,0,0,0-2.144-1.387h-1.205a2.332,2.332,0,0,0-2.342,2.322v13.08h2.182V167.283a.554.554,0,0,1,.556-.552h.551a.558.558,0,0,1,.509.329l3.846,12.91h2.5l3.846-12.91a.557.557,0,0,1,.509-.329h.55a.555.555,0,0,1,.557.552V179.97h2.181V166.89A2.332,2.332,0,0,0,478.773,164.568Z" transform="translate(-221.289 -161.91)" fill="#fff"/>
          </g>
          <g id="Agrupar_1527" data-name="Agrupar 1527">
            <g id="Agrupar_1517" data-name="Agrupar 1517" transform="translate(41.292 1.149)">
              <g id="Agrupar_1516" data-name="Agrupar 1516">
                <g id="Agrupar_1515" data-name="Agrupar 1515">
                  <path id="Caminho_528" data-name="Caminho 528" d="M275.8,113.779a8.588,8.588,0,0,1-4.261-1.128l-6.882-3.935a8.464,8.464,0,0,1-4.265-7.321V93.523a8.461,8.461,0,0,1,4.267-7.322l6.881-3.934a8.616,8.616,0,0,1,8.523,0l6.87,3.932a8.461,8.461,0,0,1,4.265,7.32V101.4a8.466,8.466,0,0,1-4.263,7.32l-6.872,3.933A8.593,8.593,0,0,1,275.8,113.779Zm0-26.9a2.748,2.748,0,0,0-1.367.362l-6.882,3.933a2.72,2.72,0,0,0-1.369,2.351v7.871a2.717,2.717,0,0,0,1.369,2.35l6.882,3.935a2.762,2.762,0,0,0,2.735,0l6.873-3.934a2.718,2.718,0,0,0,1.368-2.35V93.521a2.718,2.718,0,0,0-1.368-2.35l-6.873-3.932A2.749,2.749,0,0,0,275.8,86.877Z" transform="translate(-260.397 -81.14)" fill="#fff"/>
                </g>
              </g>
            </g>
            <g id="Agrupar_1520" data-name="Agrupar 1520" transform="translate(302.969 1.148)">
              <g id="Agrupar_1519" data-name="Agrupar 1519" transform="translate(0)">
                <g id="Agrupar_1518" data-name="Agrupar 1518">
                  <path id="Caminho_529" data-name="Caminho 529" d="M540.327,113.778a8.594,8.594,0,0,1-4.261-1.128l-6.882-3.935a8.464,8.464,0,0,1-4.265-7.321V93.522a8.461,8.461,0,0,1,4.267-7.322l6.882-3.934a8.614,8.614,0,0,1,8.522,0l6.87,3.932a8.461,8.461,0,0,1,4.265,7.32v7.874a8.466,8.466,0,0,1-4.262,7.32l-6.873,3.933A8.593,8.593,0,0,1,540.327,113.778Zm0-26.9a2.749,2.749,0,0,0-1.367.362l-6.882,3.933a2.72,2.72,0,0,0-1.369,2.351v7.871a2.717,2.717,0,0,0,1.369,2.35l6.882,3.935a2.764,2.764,0,0,0,2.736,0l6.872-3.934a2.719,2.719,0,0,0,1.369-2.35V93.52a2.719,2.719,0,0,0-1.369-2.35L541.7,87.238A2.754,2.754,0,0,0,540.327,86.876Z" transform="translate(-524.919 -81.139)" fill="#fff"/>
                </g>
              </g>
            </g>
            <g id="Agrupar_1521" data-name="Agrupar 1521" transform="translate(164.616 2.298)">
              <path id="Caminho_530" data-name="Caminho 530" d="M406.62,99.542a5.258,5.258,0,0,0,3.572-4.609v-5.05A5.626,5.626,0,0,0,407.35,85l-3.4-1.948A5.729,5.729,0,0,0,401.1,82.3h-16.04v30.342h5.789V102.51h.689v0l8.731,0a3.734,3.734,0,0,1,1.73.424l1.723.9a1.835,1.835,0,0,1,.988,1.624v7.182H410.5v-8.29C410.5,102.392,408.889,100.492,406.62,99.542Zm-3.089-4.161-1.517.884a3.725,3.725,0,0,1-1.876.506h-9.287V88.039l9.233-.012a3.726,3.726,0,0,1,1.811.467l1.57.87a1.835,1.835,0,0,1,.949,1.585l.03,2.83A1.833,1.833,0,0,1,403.53,95.381Z" transform="translate(-385.062 -82.301)" fill="#fff"/>
            </g>
            <g id="Agrupar_1522" data-name="Agrupar 1522" transform="translate(82.707 2.298)">
              <path id="Caminho_531" data-name="Caminho 531" d="M326.927,112.643h-2.238a5.224,5.224,0,0,1-4.779-3.092l-5.7-11.7-4.8-9.674a.188.188,0,0,0-.169-.132h-1.023a.166.166,0,0,0-.166.165v24.437h-5.79V87.476a5.2,5.2,0,0,1,5.22-5.175h2.24a5.223,5.223,0,0,1,4.778,3.092l5.7,11.7,4.8,9.674a.188.188,0,0,0,.169.132h1.023a.166.166,0,0,0,.166-.165V82.3h5.789v25.167A5.2,5.2,0,0,1,326.927,112.643Z" transform="translate(-302.262 -82.301)" fill="#fff"/>
            </g>
            <g id="Agrupar_1523" data-name="Agrupar 1523" transform="translate(0 1.15)">
              <path id="Caminho_532" data-name="Caminho 532" d="M234.064,113.779a8.609,8.609,0,0,1-4.262-1.127l-6.881-3.936a8.462,8.462,0,0,1-4.266-7.321V93.523a8.463,8.463,0,0,1,4.267-7.322l6.882-3.935a8.62,8.62,0,0,1,8.521,0L245.2,86.2a8.464,8.464,0,0,1,4.264,7.32v1.5h-5.79v-1.5a2.718,2.718,0,0,0-1.368-2.35l-6.872-3.932a2.814,2.814,0,0,0-2.735,0l-6.883,3.934a2.718,2.718,0,0,0-1.368,2.351v7.871a2.714,2.714,0,0,0,1.368,2.349l6.882,3.936a2.764,2.764,0,0,0,2.736,0l6.873-3.934a2.718,2.718,0,0,0,1.367-2.35V99.9h5.79V101.4a8.467,8.467,0,0,1-4.262,7.32l-6.873,3.933A8.593,8.593,0,0,1,234.064,113.779Z" transform="translate(-218.656 -81.141)" fill="#fff"/>
            </g>
            <g id="Agrupar_1524" data-name="Agrupar 1524" transform="translate(199.508 2.298)">
              <path id="Caminho_533" data-name="Caminho 533" d="M442.685,112.643H429.464a4.836,4.836,0,0,1-2.4-.639L424.6,110.6a8.46,8.46,0,0,1-4.267-7.321V91.667a8.466,8.466,0,0,1,4.269-7.323l2.458-1.4a4.847,4.847,0,0,1,2.4-.638h13.221v5.74H430.307a2.187,2.187,0,0,0-1.087.288l-1.727.987a2.719,2.719,0,0,0-1.37,2.351V94.6h16.562v5.74H426.123v2.934a2.72,2.72,0,0,0,1.37,2.352l1.727.987a2.187,2.187,0,0,0,1.087.288h12.378Z" transform="translate(-420.333 -82.301)" fill="#fff"/>
            </g>
            <g id="Agrupar_1525" data-name="Agrupar 1525" transform="translate(231.311 2.296)">
              <path id="Caminho_534" data-name="Caminho 534" d="M469.9,112.643l-.179,0-8.18,0a7.216,7.216,0,0,1-3.574-.949l-1.9-1.088a7.1,7.1,0,0,1-3.578-6.141v-.86h5.79v.86a1.353,1.353,0,0,0,.682,1.171l1.9,1.087a1.377,1.377,0,0,0,.68.18h8.251a1.466,1.466,0,0,0,.79-.179l1.9-1.087a1.354,1.354,0,0,0,.682-1.171v-1.684a1.355,1.355,0,0,0-.682-1.171l-1.9-1.087a1.376,1.376,0,0,0-.683-.181h-8.358a7.213,7.213,0,0,1-3.574-.949l-1.9-1.088a7.1,7.1,0,0,1-3.578-6.141V90.479a7.1,7.1,0,0,1,3.58-6.142l1.9-1.087a7.044,7.044,0,0,1,3.759-.946l8.173,0a7.213,7.213,0,0,1,3.575.948l1.9,1.088a7.1,7.1,0,0,1,3.577,6.141v.861h-5.789v-.861a1.353,1.353,0,0,0-.682-1.17l-1.9-1.087a1.374,1.374,0,0,0-.681-.181h-8.25a1.646,1.646,0,0,0-.791.179l-1.9,1.087a1.354,1.354,0,0,0-.683,1.171v1.685a1.35,1.35,0,0,0,.681,1.169l1.9,1.089a1.377,1.377,0,0,0,.68.18h8.36a7.217,7.217,0,0,1,3.575.949l1.9,1.089a7.1,7.1,0,0,1,3.577,6.141v1.684a7.1,7.1,0,0,1-3.578,6.142l-1.9,1.088A7.214,7.214,0,0,1,469.9,112.643Z" transform="translate(-452.482 -82.299)" fill="#fff"/>
            </g>
            <g id="Agrupar_1526" data-name="Agrupar 1526" transform="translate(267.231 2.296)">
              <path id="Caminho_535" data-name="Caminho 535" d="M506.206,112.643l-.179,0-8.18,0a7.222,7.222,0,0,1-3.575-.949l-1.9-1.088a7.1,7.1,0,0,1-3.577-6.141v-.86h5.789v.86a1.355,1.355,0,0,0,.682,1.171l1.9,1.087a1.372,1.372,0,0,0,.68.18H506.1a1.468,1.468,0,0,0,.79-.179l1.9-1.087a1.352,1.352,0,0,0,.682-1.171v-1.684a1.353,1.353,0,0,0-.682-1.171l-1.9-1.087a1.376,1.376,0,0,0-.683-.181h-8.358a7.219,7.219,0,0,1-3.575-.949l-1.9-1.088a7.1,7.1,0,0,1-3.577-6.141V90.479a7.1,7.1,0,0,1,3.58-6.142l1.9-1.087a7.049,7.049,0,0,1,3.76-.946l8.173,0a7.216,7.216,0,0,1,3.575.948l1.9,1.088a7.1,7.1,0,0,1,3.578,6.141v.861h-5.79v-.861a1.351,1.351,0,0,0-.682-1.17l-1.9-1.087a1.374,1.374,0,0,0-.68-.181h-8.25a1.644,1.644,0,0,0-.791.179l-1.9,1.087a1.356,1.356,0,0,0-.683,1.171v1.685a1.35,1.35,0,0,0,.682,1.169l1.9,1.089a1.375,1.375,0,0,0,.68.18h8.36a7.219,7.219,0,0,1,3.575.949l1.9,1.089a7.1,7.1,0,0,1,3.578,6.141v1.684a7.1,7.1,0,0,1-3.578,6.142l-1.9,1.088A7.214,7.214,0,0,1,506.206,112.643Z" transform="translate(-488.792 -82.299)" fill="#fff"/>
            </g>
            <path id="Caminho_536" data-name="Caminho 536" d="M359.717,100.613h8.469a2.721,2.721,0,0,1-1.34,1.972l-6.873,3.934a2.766,2.766,0,0,1-2.736,0l-6.882-3.936a2.718,2.718,0,0,1-1.369-2.35V92.361a2.717,2.717,0,0,1,1.369-2.35l6.882-3.934a2.816,2.816,0,0,1,2.736,0l6.872,3.932a2.708,2.708,0,0,1,1.309,1.907h5.819a8.456,8.456,0,0,0-4.233-6.877l-6.873-3.932a8.615,8.615,0,0,0-8.521,0l-6.882,3.934a8.462,8.462,0,0,0-4.266,7.322v7.871a8.46,8.46,0,0,0,4.265,7.321l6.881,3.936a8.613,8.613,0,0,0,8.525,0l6.872-3.934A8.463,8.463,0,0,0,374,100.235V94.9H359.717Z" transform="translate(-219.995 -79.978)" fill="#fff"/>
          </g>
          <g id="Agrupar_1546" data-name="Agrupar 1546" transform="translate(0 41.031)">
            <g id="Agrupar_1530" data-name="Agrupar 1530" transform="translate(0 1.149)">
              <g id="Agrupar_1528" data-name="Agrupar 1528">
                <path id="Caminho_537" data-name="Caminho 537" d="M236.514,152.959H218.656V122.617h17.859a4.858,4.858,0,0,1,2.4.638l2.459,1.408a8.46,8.46,0,0,1,4.266,7.32v11.611a8.463,8.463,0,0,1-4.268,7.322l-2.458,1.406A4.862,4.862,0,0,1,236.514,152.959Zm-12.068-5.739H235.67a2.187,2.187,0,0,0,1.087-.288l1.728-.988a2.7,2.7,0,0,0,1.359-2.216l.01-.214V131.984a2.718,2.718,0,0,0-1.369-2.351l-1.728-.987a2.188,2.188,0,0,0-1.087-.289H224.446Z" transform="translate(-218.656 -122.617)" fill="#fff"/>
              </g>
              <g id="Agrupar_1529" data-name="Agrupar 1529" transform="translate(29.882)">
                <path id="Caminho_538" data-name="Caminho 538" d="M271.215,152.959H257.994a4.851,4.851,0,0,1-2.406-.638l-2.459-1.406a8.464,8.464,0,0,1-4.266-7.321V131.983a8.464,8.464,0,0,1,4.269-7.323l2.458-1.4a4.844,4.844,0,0,1,2.4-.638h13.221v5.74H258.838a2.2,2.2,0,0,0-1.087.288l-1.728.988a2.716,2.716,0,0,0-1.369,2.35v2.936h16.562v5.739H254.653v2.935a2.718,2.718,0,0,0,1.37,2.352l1.727.986a2.189,2.189,0,0,0,1.087.289h12.377Z" transform="translate(-248.863 -122.617)" fill="#fff"/>
              </g>
            </g>
            <g id="Agrupar_1545" data-name="Agrupar 1545" transform="translate(69.384)">
              <g id="Agrupar_1531" data-name="Agrupar 1531" transform="translate(133.881 1.149)">
                <path id="Caminho_539" data-name="Caminho 539" d="M446.482,152.959H433.261a4.854,4.854,0,0,1-2.4-.638l-2.459-1.406a8.462,8.462,0,0,1-4.266-7.321V122.617h5.789v20.976a2.717,2.717,0,0,0,1.37,2.351l1.727.987a2.2,2.2,0,0,0,1.088.289h12.376Z" transform="translate(-424.131 -122.617)" fill="#fff"/>
              </g>
              <g id="Agrupar_1532" data-name="Agrupar 1532" transform="translate(223.523 1.149)">
                <path id="Caminho_540" data-name="Caminho 540" d="M520.537,152.959h-5.79V122.617h5.79Z" transform="translate(-514.747 -122.617)" fill="#fff"/>
              </g>
              <g id="Agrupar_1533" data-name="Agrupar 1533" transform="translate(230.673 1.149)">
                <path id="Caminho_541" data-name="Caminho 541" d="M540.01,122.617h-2.351a6.3,6.3,0,0,0-5.858,3.921l-9.825,26.421h6.169l2.564-6.891H546.96l2.563,6.891h6.17l-9.836-26.448A6.293,6.293,0,0,0,540.01,122.617Zm-7.169,17.711,4.175-11.265a1.282,1.282,0,0,1,1.139-.706h1.283a1.325,1.325,0,0,1,1.192.653l4.2,11.319Z" transform="translate(-521.975 -122.617)" fill="#fff"/>
              </g>
              <g id="Agrupar_1536" data-name="Agrupar 1536" transform="translate(0 0)">
                <g id="Agrupar_1535" data-name="Agrupar 1535">
                  <g id="Agrupar_1534" data-name="Agrupar 1534">
                    <path id="Caminho_542" data-name="Caminho 542" d="M304.2,154.1a8.589,8.589,0,0,1-4.261-1.129l-6.882-3.935a8.463,8.463,0,0,1-4.265-7.321v-7.871a8.461,8.461,0,0,1,4.267-7.322l6.881-3.934a8.616,8.616,0,0,1,8.523,0l6.87,3.932a8.461,8.461,0,0,1,4.265,7.32v7.874a8.464,8.464,0,0,1-4.263,7.32l-6.872,3.934A8.593,8.593,0,0,1,304.2,154.1Zm0-26.9a2.758,2.758,0,0,0-1.367.362l-6.882,3.934a2.718,2.718,0,0,0-1.369,2.35v7.871a2.717,2.717,0,0,0,1.369,2.35L302.834,148a2.762,2.762,0,0,0,2.735,0l6.873-3.934a2.717,2.717,0,0,0,1.368-2.35v-7.874a2.716,2.716,0,0,0-1.368-2.349l-6.873-3.933A2.757,2.757,0,0,0,304.2,127.193Z" transform="translate(-288.794 -121.456)" fill="#fff"/>
                  </g>
                </g>
              </g>
              <g id="Agrupar_1539" data-name="Agrupar 1539" transform="translate(100.181 0)">
                <g id="Agrupar_1538" data-name="Agrupar 1538">
                  <g id="Agrupar_1537" data-name="Agrupar 1537">
                    <path id="Caminho_543" data-name="Caminho 543" d="M405.472,154.1a8.589,8.589,0,0,1-4.261-1.129l-6.882-3.935a8.463,8.463,0,0,1-4.265-7.321v-7.871a8.461,8.461,0,0,1,4.267-7.322l6.881-3.934a8.616,8.616,0,0,1,8.523,0l6.87,3.932a8.461,8.461,0,0,1,4.265,7.32v7.874a8.464,8.464,0,0,1-4.263,7.32l-6.872,3.934A8.593,8.593,0,0,1,405.472,154.1Zm0-26.9a2.759,2.759,0,0,0-1.367.362l-6.882,3.934a2.718,2.718,0,0,0-1.369,2.35v7.871a2.717,2.717,0,0,0,1.369,2.35L404.1,148a2.762,2.762,0,0,0,2.735,0l6.873-3.934a2.717,2.717,0,0,0,1.368-2.35v-7.874a2.716,2.716,0,0,0-1.368-2.349l-6.873-3.933A2.757,2.757,0,0,0,405.472,127.193Z" transform="translate(-390.064 -121.456)" fill="#fff"/>
                  </g>
                </g>
              </g>
              <g id="Agrupar_1542" data-name="Agrupar 1542" transform="translate(156.122 0)">
                <g id="Agrupar_1541" data-name="Agrupar 1541">
                  <g id="Agrupar_1540" data-name="Agrupar 1540">
                    <path id="Caminho_544" data-name="Caminho 544" d="M462.021,154.1a8.6,8.6,0,0,1-4.262-1.129l-6.881-3.935a8.462,8.462,0,0,1-4.266-7.321v-7.871a8.462,8.462,0,0,1,4.268-7.322l6.881-3.934a8.614,8.614,0,0,1,8.522,0l6.871,3.932a8.461,8.461,0,0,1,4.265,7.32v7.874a8.464,8.464,0,0,1-4.263,7.32l-6.872,3.934A8.6,8.6,0,0,1,462.021,154.1Zm0-26.9a2.762,2.762,0,0,0-1.368.362l-6.881,3.934a2.716,2.716,0,0,0-1.369,2.35v7.871a2.717,2.717,0,0,0,1.369,2.35L460.653,148a2.763,2.763,0,0,0,2.736,0l6.873-3.934a2.717,2.717,0,0,0,1.368-2.35v-7.874a2.715,2.715,0,0,0-1.369-2.349l-6.872-3.933A2.76,2.76,0,0,0,462.021,127.193Z" transform="translate(-446.613 -121.456)" fill="#fff"/>
                  </g>
                </g>
              </g>
              <g id="Agrupar_1543" data-name="Agrupar 1543" transform="translate(33.701 1.149)">
                <path id="Caminho_545" data-name="Caminho 545" d="M347.526,152.959h-2.239a5.221,5.221,0,0,1-4.778-3.092l-5.7-11.7-4.8-9.673a.189.189,0,0,0-.169-.133h-1.022a.167.167,0,0,0-.167.165v24.437h-5.789V127.793a5.2,5.2,0,0,1,5.22-5.176h2.239a5.222,5.222,0,0,1,4.778,3.092l5.7,11.7,4.8,9.674a.187.187,0,0,0,.168.133h1.023a.167.167,0,0,0,.166-.166V122.617h5.79v25.167A5.2,5.2,0,0,1,347.526,152.959Z" transform="translate(-322.861 -122.617)" fill="#fff"/>
              </g>
              <g id="Agrupar_1544" data-name="Agrupar 1544" transform="translate(66.479 0.001)">
                <path id="Caminho_546" data-name="Caminho 546" d="M371.4,154.1a8.609,8.609,0,0,1-4.262-1.127l-6.881-3.936A8.462,8.462,0,0,1,356,141.711v-7.871a8.463,8.463,0,0,1,4.267-7.322l6.882-3.935a8.62,8.62,0,0,1,8.521,0l6.873,3.932a8.464,8.464,0,0,1,4.264,7.32v1.5h-5.789v-1.5a2.719,2.719,0,0,0-1.369-2.35l-6.872-3.932a2.814,2.814,0,0,0-2.735,0l-6.883,3.934a2.718,2.718,0,0,0-1.368,2.351v7.871a2.714,2.714,0,0,0,1.368,2.349L370.036,148a2.764,2.764,0,0,0,2.736,0l6.873-3.934a2.718,2.718,0,0,0,1.368-2.35v-1.494H386.8v1.494a8.467,8.467,0,0,1-4.262,7.32l-6.873,3.933A8.593,8.593,0,0,1,371.4,154.1Z" transform="translate(-355.996 -121.457)" fill="#fff"/>
              </g>
              <path id="Caminho_547" data-name="Caminho 547" d="M497.2,142.091h8.469a2.725,2.725,0,0,1-1.34,1.972L497.457,148a2.765,2.765,0,0,1-2.737,0l-6.881-3.936a2.716,2.716,0,0,1-1.369-2.349v-7.871a2.717,2.717,0,0,1,1.369-2.35l6.882-3.934a2.816,2.816,0,0,1,2.736,0l6.871,3.932a2.7,2.7,0,0,1,1.31,1.907h5.819a8.455,8.455,0,0,0-4.233-6.877l-6.873-3.933a8.615,8.615,0,0,0-8.521,0l-6.882,3.933a8.466,8.466,0,0,0-4.267,7.323v7.871a8.462,8.462,0,0,0,4.266,7.321l6.881,3.936a8.611,8.611,0,0,0,8.524,0l6.873-3.934a8.463,8.463,0,0,0,4.262-7.32v-5.338H497.2Z" transform="translate(-290.858 -121.456)" fill="#fff"/>
            </g>
          </g>
        </g>
        <rect id="Retângulo_2139" data-name="Retângulo 2139" width="1.622" height="99.699" transform="translate(134.433 0.001)" fill="#fff"/>
        <g id="Agrupar_1548" data-name="Agrupar 1548">
          <path id="Caminho_548" data-name="Caminho 548" d="M85.156,87.633V79.978H62.646v7.655H68.97v84.391H62.646v7.655h22.51v-7.655H78.832V87.633Z" transform="translate(-62.646 -79.978)" fill="#fff"/>
          <path id="Caminho_549" data-name="Caminho 549" d="M183.48,79.978H160.97v7.655h6l-29.9,78.612-29.9-78.612h6V79.978H90.656v7.655h5.956l35.014,92.045H142.51l35.014-92.045h5.956Z" transform="translate(-62.947 -79.978)" fill="#fff"/>
        </g>
      </g>
    </g>
    <g id="Agrupar_1579" data-name="Agrupar 1579" transform="translate(253.565 208.621)">
      <g id="Agrupar_1577" data-name="Agrupar 1577" transform="translate(76.967)">
        <g id="Agrupar_1563" data-name="Agrupar 1563">
          <g id="Agrupar_1551" data-name="Agrupar 1551" transform="translate(0 5.582)">
            <path id="Caminho_550" data-name="Caminho 550" d="M344.366,235.392h-5.243a4.492,4.492,0,0,1-2.242-.6l-1.193-.688a4.5,4.5,0,0,1-2.244-3.886v-.543h3.63v.543a.856.856,0,0,0,.427.741l1.193.689a.861.861,0,0,0,.426.114H344.3a.92.92,0,0,0,.5-.114l1.193-.689a.855.855,0,0,0,.428-.74v-1.065a.858.858,0,0,0-.428-.741l-1.192-.688a.858.858,0,0,0-.428-.115h-5.242a4.492,4.492,0,0,1-2.242-.6l-1.193-.688a4.5,4.5,0,0,1-2.244-3.885V221.37a4.5,4.5,0,0,1,2.245-3.886l1.192-.688a4.386,4.386,0,0,1,2.357-.6l5.126,0a4.493,4.493,0,0,1,2.243.6l1.193.689a4.5,4.5,0,0,1,2.244,3.885v.544h-3.631v-.544a.858.858,0,0,0-.428-.74l-1.192-.687a.857.857,0,0,0-.427-.115h-5.174a1.009,1.009,0,0,0-.5.113l-1.192.688a.858.858,0,0,0-.428.741v1.066a.855.855,0,0,0,.427.74l1.193.689a.86.86,0,0,0,.426.114h5.243a4.5,4.5,0,0,1,2.243.6l1.193.689a4.5,4.5,0,0,1,2.244,3.886v1.065A4.5,4.5,0,0,1,347.8,234.1l-1.194.689A4.5,4.5,0,0,1,344.366,235.392Z" transform="translate(-333.445 -216.195)" fill="#fff"/>
          </g>
          <g id="Agrupar_1552" data-name="Agrupar 1552" transform="translate(92.916 5.582)">
            <path id="Caminho_551" data-name="Caminho 551" d="M438.292,235.392h-5.243a4.492,4.492,0,0,1-2.242-.6l-1.193-.688a4.5,4.5,0,0,1-2.244-3.886v-.543H431v.543a.856.856,0,0,0,.427.741l1.193.689a.86.86,0,0,0,.426.114h5.175a.92.92,0,0,0,.5-.114l1.193-.689a.854.854,0,0,0,.427-.74v-1.065a.857.857,0,0,0-.427-.741l-1.192-.688a.86.86,0,0,0-.428-.115h-5.242a4.492,4.492,0,0,1-2.242-.6l-1.193-.688a4.5,4.5,0,0,1-2.244-3.885V221.37a4.5,4.5,0,0,1,2.245-3.886l1.192-.688a4.384,4.384,0,0,1,2.357-.6l5.126,0a4.494,4.494,0,0,1,2.243.6l1.193.689a4.5,4.5,0,0,1,2.244,3.885v.544h-3.632v-.544a.857.857,0,0,0-.427-.74l-1.192-.687a.856.856,0,0,0-.427-.115h-5.175a1,1,0,0,0-.5.113l-1.192.688a.858.858,0,0,0-.428.741v1.066a.856.856,0,0,0,.427.74l1.193.689a.86.86,0,0,0,.426.114h5.243a4.5,4.5,0,0,1,2.243.6l1.193.689a4.5,4.5,0,0,1,2.244,3.886v1.065a4.5,4.5,0,0,1-2.245,3.886l-1.193.689A4.5,4.5,0,0,1,438.292,235.392Z" transform="translate(-427.371 -216.195)" fill="#fff"/>
          </g>
          <g id="Agrupar_1553" data-name="Agrupar 1553" transform="translate(19.237 5.447)">
            <path id="Caminho_552" data-name="Caminho 552" d="M356.522,235.255h-3.631v-19.2h3.631Z" transform="translate(-352.891 -216.058)" fill="#fff"/>
          </g>
          <g id="Agrupar_1554" data-name="Agrupar 1554" transform="translate(112.153 5.582)">
            <path id="Caminho_553" data-name="Caminho 553" d="M450.448,235.391h-3.631V216.2h3.631Z" transform="translate(-446.817 -216.195)" fill="#fff"/>
          </g>
          <path id="Caminho_554" data-name="Caminho 554" d="M379.016,216.2h-1.489a3.311,3.311,0,0,0-3.037,2.015l-3.568,11.508-3.585-11.551a3.3,3.3,0,0,0-3.021-1.972h-1.488a3.3,3.3,0,0,0-3.3,3.3v15.9h3.508V219.985a.281.281,0,0,1,.281-.282H364a.291.291,0,0,1,.24.12l4.838,15.57h3.693l4.821-15.521a.283.283,0,0,1,.258-.168h.68a.282.282,0,0,1,.282.282v15.408h3.508V219.5A3.3,3.3,0,0,0,379.016,216.2Z" transform="translate(-333.726 -210.613)" fill="#fff"/>
          <path id="Caminho_555" data-name="Caminho 555" d="M400.4,217.984l-2.262-1.3a3.619,3.619,0,0,0-1.805-.484H385.838v19.2h3.508v-5.985h7a3.573,3.573,0,0,0,1.787-.479l2.265-1.308a3.619,3.619,0,0,0,1.8-3.125V221.11A3.621,3.621,0,0,0,400.4,217.984Zm-1.7,3.126V224.5a.1.1,0,0,1-.05.087l-2.286,1.317h-7.015v-6.2l7.038.013,2.263,1.307A.1.1,0,0,1,398.7,221.11Z" transform="translate(-334.008 -210.613)" fill="#fff"/>
          <g id="Agrupar_1558" data-name="Agrupar 1558" transform="translate(70.625)">
            <g id="Agrupar_1557" data-name="Agrupar 1557" transform="translate(0 4.698)">
              <g id="Agrupar_1556" data-name="Agrupar 1556">
                <g id="Agrupar_1555" data-name="Agrupar 1555">
                  <path id="Caminho_556" data-name="Caminho 556" d="M414.649,236.266a5.435,5.435,0,0,1-2.713-.724l-4.382-2.529a5.445,5.445,0,0,1-2.716-4.7v-5.056a5.445,5.445,0,0,1,2.716-4.7l4.382-2.527a5.446,5.446,0,0,1,5.427,0l4.374,2.527a5.441,5.441,0,0,1,2.715,4.7v5.057a5.445,5.445,0,0,1-2.714,4.7l-4.375,2.527A5.434,5.434,0,0,1,414.649,236.266Zm0-17.28a1.755,1.755,0,0,0-.872.232l-4.381,2.527a1.749,1.749,0,0,0-.873,1.511v5.056a1.749,1.749,0,0,0,.873,1.51l4.381,2.528a1.747,1.747,0,0,0,1.742,0l4.376-2.527a1.75,1.75,0,0,0,.871-1.511v-5.057a1.747,1.747,0,0,0-.871-1.51l-4.376-2.527A1.748,1.748,0,0,0,414.649,218.986Z" transform="translate(-404.838 -215.301)" fill="#fff"/>
                </g>
              </g>
            </g>
            <path id="Caminho_557" data-name="Caminho 557" d="M416.731,213.582h-4.209l1.625-3.029h4.209Z" transform="translate(-404.921 -210.552)" fill="#fff"/>
          </g>
          <g id="Agrupar_1562" data-name="Agrupar 1562" transform="translate(118.718 4.698)">
            <g id="Agrupar_1561" data-name="Agrupar 1561">
              <g id="Agrupar_1560" data-name="Agrupar 1560">
                <g id="Agrupar_1559" data-name="Agrupar 1559">
                  <path id="Caminho_558" data-name="Caminho 558" d="M463.264,236.266a5.438,5.438,0,0,1-2.713-.724l-4.381-2.529a5.445,5.445,0,0,1-2.715-4.7v-5.056a5.444,5.444,0,0,1,2.717-4.7l4.381-2.527a5.446,5.446,0,0,1,5.427,0l4.375,2.527a5.441,5.441,0,0,1,2.716,4.7v5.057a5.447,5.447,0,0,1-2.715,4.7l-4.375,2.527A5.435,5.435,0,0,1,463.264,236.266Zm0-17.28a1.751,1.751,0,0,0-.87.232l-4.382,2.527a1.75,1.75,0,0,0-.872,1.511v5.056a1.75,1.75,0,0,0,.872,1.51l4.382,2.528a1.747,1.747,0,0,0,1.742,0l4.376-2.527a1.75,1.75,0,0,0,.872-1.511v-5.057a1.747,1.747,0,0,0-.872-1.51l-4.376-2.527A1.753,1.753,0,0,0,463.264,218.986Z" transform="translate(-453.454 -215.301)" fill="#fff"/>
                </g>
              </g>
            </g>
          </g>
        </g>
        <g id="Agrupar_1576" data-name="Agrupar 1576" transform="translate(0 30.73)">
          <path id="Caminho_559" data-name="Caminho 559" d="M352.933,242.51h-1.489a3.312,3.312,0,0,0-3.037,2.015l-3.568,11.508-3.585-11.551a3.3,3.3,0,0,0-3.021-1.972h-1.489a3.3,3.3,0,0,0-3.3,3.3v15.9h3.507V246.3a.282.282,0,0,1,.282-.282h.68a.293.293,0,0,1,.24.12l4.838,15.57h3.693l4.821-15.521a.283.283,0,0,1,.258-.168h.68a.282.282,0,0,1,.282.282v15.408h3.507v-15.9A3.3,3.3,0,0,0,352.933,242.51Z" transform="translate(-333.445 -241.626)" fill="#fff"/>
          <path id="Caminho_560" data-name="Caminho 560" d="M374.6,242.51v11.559a1.681,1.681,0,0,1-.837,1.45l-4.2,2.426a1.678,1.678,0,0,1-1.673,0l-4.208-2.428a1.68,1.68,0,0,1-.838-1.45V249.73h0v-7.22H359.3v11.558a5.228,5.228,0,0,0,2.608,4.516l4.208,2.428a5.228,5.228,0,0,0,5.212,0l4.2-2.427a5.228,5.228,0,0,0,2.607-4.515V242.51Z" transform="translate(-333.723 -241.626)" fill="#fff"/>
          <g id="Agrupar_1564" data-name="Agrupar 1564" transform="translate(46.925 0.883)">
            <path id="Caminho_561" data-name="Caminho 561" d="M394.9,261.708h-8.294a3.016,3.016,0,0,1-1.509-.4l-1.542-.889a5.363,5.363,0,0,1-2.675-4.633V242.509h3.63v13.273a1.722,1.722,0,0,0,.86,1.488l1.083.624a1.371,1.371,0,0,0,.683.183H394.9Z" transform="translate(-380.88 -242.509)" fill="#fff"/>
          </g>
          <g id="Agrupar_1565" data-name="Agrupar 1565" transform="translate(170.415 0.883)">
            <path id="Caminho_562" data-name="Caminho 562" d="M519.734,261.708H511.44a3.017,3.017,0,0,1-1.509-.4l-1.542-.889a5.361,5.361,0,0,1-2.676-4.633V242.509h3.632v13.273a1.722,1.722,0,0,0,.86,1.488l1.083.624a1.37,1.37,0,0,0,.682.183h7.764Z" transform="translate(-505.713 -242.509)" fill="#fff"/>
          </g>
          <path id="Caminho_563" data-name="Caminho 563" d="M390.275,242.509V246.3h6.71v15.405h3.793V246.3H407.1v-3.794Z" transform="translate(-334.056 -241.626)" fill="#fff"/>
          <g id="Agrupar_1566" data-name="Agrupar 1566" transform="translate(75.173 0.884)">
            <path id="Caminho_564" data-name="Caminho 564" d="M413.065,261.707h-3.63v-19.2h3.63Z" transform="translate(-409.435 -242.51)" fill="#fff"/>
          </g>
          <g id="Agrupar_1567" data-name="Agrupar 1567" transform="translate(186.552 0.884)">
            <path id="Caminho_565" data-name="Caminho 565" d="M525.656,261.707h-3.631v-19.2h3.631Z" transform="translate(-522.025 -242.51)" fill="#fff"/>
          </g>
          <g id="Agrupar_1568" data-name="Agrupar 1568" transform="translate(100.176 0.884)">
            <path id="Caminho_566" data-name="Caminho 566" d="M438.342,261.707H434.71v-19.2h3.632Z" transform="translate(-434.71 -242.51)" fill="#fff"/>
          </g>
          <g id="Agrupar_1569" data-name="Agrupar 1569" transform="translate(145.665 0.884)">
            <path id="Caminho_567" data-name="Caminho 567" d="M484.325,261.707h-3.631v-19.2h3.631Z" transform="translate(-480.694 -242.51)" fill="#fff"/>
          </g>
          <g id="Agrupar_1570" data-name="Agrupar 1570" transform="translate(81.28 0.883)">
            <path id="Caminho_568" data-name="Caminho 568" d="M426.81,261.708h-11.2v-19.2h11.2a3.029,3.029,0,0,1,1.509.4l1.542.89a5.363,5.363,0,0,1,2.676,4.633v7.346a5.363,5.363,0,0,1-2.677,4.634l-1.542.889A3.023,3.023,0,0,1,426.81,261.708Zm-7.57-3.632h7.041a1.374,1.374,0,0,0,.682-.182l1.084-.625a1.71,1.71,0,0,0,.852-1.4l.007-.135v-7.3a1.721,1.721,0,0,0-.86-1.487l-1.083-.625a1.365,1.365,0,0,0-.683-.183h-7.04Z" transform="translate(-415.609 -242.509)" fill="#fff"/>
          </g>
          <g id="Agrupar_1571" data-name="Agrupar 1571" transform="translate(106.013 0.884)">
            <path id="Caminho_569" data-name="Caminho 569" d="M451.532,261.707h-5.243a4.493,4.493,0,0,1-2.242-.6l-1.193-.689a4.5,4.5,0,0,1-2.244-3.885v-.544h3.631v.544a.857.857,0,0,0,.427.741l1.193.688a.861.861,0,0,0,.426.115h5.175a.92.92,0,0,0,.5-.114l1.193-.688a.858.858,0,0,0,.428-.741v-1.065a.858.858,0,0,0-.428-.741l-1.192-.687a.858.858,0,0,0-.428-.115h-5.242a4.492,4.492,0,0,1-2.242-.6l-1.193-.689a4.5,4.5,0,0,1-2.244-3.885v-1.066a4.5,4.5,0,0,1,2.245-3.886l1.192-.688a4.4,4.4,0,0,1,2.357-.6h5.126a4.5,4.5,0,0,1,2.243.6l1.193.689a4.5,4.5,0,0,1,2.244,3.886v.544h-3.63v-.544a.858.858,0,0,0-.428-.741l-1.192-.687a.857.857,0,0,0-.427-.115h-5.174a1.031,1.031,0,0,0-.5.113l-1.192.689a.856.856,0,0,0-.428.74v1.066a.855.855,0,0,0,.427.74l1.193.689a.859.859,0,0,0,.426.114h5.243a4.5,4.5,0,0,1,2.243.6l1.193.689a4.5,4.5,0,0,1,2.244,3.886v1.065a4.5,4.5,0,0,1-2.244,3.886l-1.194.689A4.488,4.488,0,0,1,451.532,261.707Z" transform="translate(-440.611 -242.51)" fill="#fff"/>
          </g>
          <g id="Agrupar_1572" data-name="Agrupar 1572" transform="translate(124.164)">
            <path id="Caminho_570" data-name="Caminho 570" d="M468.77,262.582a5.449,5.449,0,0,1-2.713-.724l-4.382-2.529a5.445,5.445,0,0,1-2.715-4.7v-5.056a5.444,5.444,0,0,1,2.716-4.7l4.382-2.528a5.444,5.444,0,0,1,5.426,0l4.378,2.526a5.448,5.448,0,0,1,2.714,4.7v.961h-3.687v-.961a1.745,1.745,0,0,0-.871-1.51l-4.377-2.527a1.775,1.775,0,0,0-1.741,0l-4.382,2.527a1.749,1.749,0,0,0-.872,1.511v5.056a1.745,1.745,0,0,0,.872,1.509l4.381,2.529a1.747,1.747,0,0,0,1.742,0l4.378-2.527a1.749,1.749,0,0,0,.871-1.51v-.961h3.687v.961a5.446,5.446,0,0,1-2.714,4.7l-4.377,2.527A5.429,5.429,0,0,1,468.77,262.582Z" transform="translate(-458.959 -241.616)" fill="#fff"/>
          </g>
          <path id="Caminho_571" data-name="Caminho 571" d="M501.538,244.3l-2.262-1.306a3.619,3.619,0,0,0-1.805-.484H486.976v19.2h3.507v-5.985h7a3.575,3.575,0,0,0,1.786-.479l2.265-1.308a3.618,3.618,0,0,0,1.8-3.125v-3.386A3.618,3.618,0,0,0,501.538,244.3Zm-1.7,3.125v3.386a.1.1,0,0,1-.05.087l-2.285,1.317h-7.016v-6.2l7.038.012,2.263,1.307A.1.1,0,0,1,499.834,247.425Z" transform="translate(-335.096 -241.626)" fill="#fff"/>
          <g id="Agrupar_1573" data-name="Agrupar 1573" transform="translate(192.716 0.883)">
            <path id="Caminho_572" data-name="Caminho 572" d="M543.727,261.708h-1.4a3.276,3.276,0,0,1-3-1.957l-3.576-7.406-3.01-6.12a.119.119,0,0,0-.106-.084h-.642a.106.106,0,0,0-.1.1v15.463h-3.631V245.783a3.278,3.278,0,0,1,3.274-3.274h1.4a3.276,3.276,0,0,1,3,1.957l3.576,7.406,3.01,6.12a.118.118,0,0,0,.106.084h.641a.1.1,0,0,0,.1-.1V242.509H547v15.925A3.278,3.278,0,0,1,543.727,261.708Z" transform="translate(-528.256 -242.509)" fill="#fff"/>
          </g>
          <g id="Agrupar_1574" data-name="Agrupar 1574" transform="translate(212.126 0.883)">
            <path id="Caminho_573" data-name="Caminho 573" d="M559.19,242.509h-1.475a3.953,3.953,0,0,0-3.675,2.482l-6.163,16.717h3.87l1.607-4.362h10.2l1.608,4.362h3.871l-6.171-16.735A3.945,3.945,0,0,0,559.19,242.509Zm-4.5,11.207,2.618-7.128a.8.8,0,0,1,.714-.447h.805a.832.832,0,0,1,.748.413l2.632,7.162Z" transform="translate(-547.877 -242.509)" fill="#fff"/>
          </g>
          <g id="Agrupar_1575" data-name="Agrupar 1575" transform="translate(234.127 0.883)">
            <path id="Caminho_574" data-name="Caminho 574" d="M583.64,253.418a3.325,3.325,0,0,0,2.241-2.917v-3.2a3.563,3.563,0,0,0-1.783-3.086l-2.135-1.233a3.577,3.577,0,0,0-1.784-.478H570.118v19.2h3.631V255.3h.432v0l5.477,0a2.311,2.311,0,0,1,1.085.268l1.081.571a1.162,1.162,0,0,1,.619,1.028v4.545h3.632v-5.246A3.62,3.62,0,0,0,583.64,253.418Zm-1.938-2.632-.951.559a2.326,2.326,0,0,1-1.177.32h-5.826V246.14l5.792-.007a2.318,2.318,0,0,1,1.136.295l.985.551a1.161,1.161,0,0,1,.595,1l.019,1.791A1.164,1.164,0,0,1,581.7,250.786Z" transform="translate(-570.118 -242.509)" fill="#fff"/>
          </g>
        </g>
      </g>
      <g id="Agrupar_1578" data-name="Agrupar 1578" transform="translate(0 5.447)">
        <path id="Caminho_575" data-name="Caminho 575" d="M255.641,220.5h2.877v36.473h-2.877v4.446h11.31v-4.446h-2.878V220.5h2.878v-4.446h-11.31Z" transform="translate(-255.641 -216.058)" fill="#fff"/>
        <path id="Caminho_576" data-name="Caminho 576" d="M302.285,216.058V220.5h2.491l-12.833,32.959L279.11,220.5H281.6v-4.446H270.29V220.5h2.876L289.1,261.424h5.689L310.719,220.5H313.6v-4.446Z" transform="translate(-255.798 -216.058)" fill="#fff"/>
      </g>
      <rect id="Retângulo_2140" data-name="Retângulo 2140" width="0.738" height="45.366" transform="translate(66.11 5.447)" fill="#fff"/>
    </g>
  </g>
</svg>
