<svg xmlns="http://www.w3.org/2000/svg" width="252.458" height="81.912" viewBox="0 0 252.458 81.912">
  <g id="Agrupar_1598" data-name="Agrupar 1598" transform="translate(-330.041 -1071.108)">
    <g id="Agrupar_1597" data-name="Agrupar 1597" transform="translate(330.041 1071.108)">
      <g id="Agrupar_1595" data-name="Agrupar 1595">
        <g id="Agrupar_1594" data-name="Agrupar 1594">
          <g id="Agrupar_1592" data-name="Agrupar 1592" transform="translate(24.42 9.708)">
            <rect id="Retângulo_2142" data-name="Retângulo 2142" width="1.564" height="10.382" transform="translate(1.82 28.116) rotate(-50.999)" fill="#fff"/>
            <rect id="Retângulo_2143" data-name="Retângulo 2143" width="3.224" height="2.276" transform="matrix(0.629, -0.777, 0.777, 0.629, 0.686, 32.078)" fill="#fff"/>
            <rect id="Retângulo_2144" data-name="Retângulo 2144" width="4.551" height="2.844" transform="translate(3.166 35.794) rotate(-51.001)" fill="#fff"/>
            <path id="Caminho_604" data-name="Caminho 604" d="M377.05,1079.118l-.537.663.516.418-3.88,4.79-.486-.4a1.453,1.453,0,0,0-1.989.4l-6.565,8.108-3.1,3.832-7.725,9.542,6.484,5.25,6.181-7.633a4.878,4.878,0,0,1,5.894-7.278l5.321-6.57a1.435,1.435,0,0,0,0-2.013l-.542-.439,3.878-4.79.516.418.537-.664Z" transform="translate(-349.535 -1079.118)" fill="#fff"/>
            <path id="Caminho_605" data-name="Caminho 605" d="M382.542,1118.178H373.4a14.33,14.33,0,0,0,3.809-6.925,13.583,13.583,0,0,0-.43-7.066,20.1,20.1,0,0,0-2.135-4.5,4.883,4.883,0,0,1-3.7,2.13c1.945,3.054,2.651,5.911,2.1,8.52a9.45,9.45,0,0,1-1.505,3.4,13.782,13.782,0,0,1-2.382,2.6,14.867,14.867,0,0,1-2.595,1.835H351.081c-.484,0-.891.159-.891.362v4.211h33.181v-4.211C383.371,1118.337,383.025,1118.178,382.542,1118.178Z" transform="translate(-350.19 -1074.757)" fill="#fff"/>
            <path id="Caminho_606" data-name="Caminho 606" d="M367.7,1094.292a3.807,3.807,0,1,0,3.807,3.807A3.807,3.807,0,0,0,367.7,1094.292Zm0,5.578a1.77,1.77,0,1,1,1.769-1.771A1.771,1.771,0,0,1,367.7,1099.87Z" transform="translate(-347.284 -1075.902)" fill="#fff"/>
          </g>
          <path id="Caminho_607" data-name="Caminho 607" d="M351.758,1146.455c1.834-3.72,4.043-.93,5.866-2.053-1.693,2.618-3.606,1.374-5.866,2.053Zm36.354-73.932c1.153-1.171,1.636.154,2.462-.041-.964.773-1.527.068-2.462.041Zm1.59-1.415c.3,1.823,1.6.921,2.234,1.636-.382-1.334-1.359-1.053-2.234-1.636Zm.173,2.721c1.234.034,1.979.966,3.25-.055-1.091.257-1.727-1.491-3.25.055Zm2.868-1.756c.829.783,1.925.659,2.089,2.157-.545-.88-2.1-.154-2.089-2.157Zm-.485,3.07c2.112-1.547,2.535.658,3.884.562-1.711.971-2.42-.282-3.884-.562Zm3.146-2.065c-.618,2.149,1.275,1.837,1.6,2.948.274-1.659-.941-1.857-1.6-2.948Zm-.693,3.953c1.643.458,2.333,1.957,4.379,1.012-1.549-.02-1.82-2.575-4.379-1.012Zm3.213-2.641c.67,1.355,2.088,1.706,1.6,3.643-.273-1.345-2.543-1.159-1.6-3.643Zm-.733,5.191c2.632-1.609,2.912,1.023,4.506,1.042-2.106.972-2.814-.57-4.506-1.042Zm3.464-3.252c-1.28,2.455,1.093,2.544,1.208,3.97.742-1.945-.682-2.485-1.208-3.97Zm-1.482,5.9c1.824.509,2.588,2.172,4.858,1.124-1.719-.021-2.019-2.858-4.858-1.124Zm4.141-3.574c.375,1.589,1.782,2.3.8,4.225.042-1.482-2.392-1.84-.8-4.225Zm-21.94,68.17q.467-.094.93-.2c.93,2.777,2.978,2.105,4.883,3.27-.783-3.833-3.454-1.854-4.866-3.274a39.485,39.485,0,0,0,16.247-8.017c1.742,2.2,3.5.97,5.677,1.5-1.9-3.371-3.809-.927-5.579-1.578q1.087-.9,2.108-1.877c1.579,2.1,3.169.955,5.145,1.432-1.742-3.093-3.5-.7-5.113-1.463q1-.956,1.925-1.978c1.62,1.887,3.03.707,4.912,1.021-1.842-2.787-3.327-.388-4.9-1.038a39.668,39.668,0,0,0,7.235-11.373c2.394.688,2.922-1.075,4.669-1.846-3.069-1.315-2.992,1.5-4.66,1.824q.594-1.427,1.08-2.909c2.438.584,2.881-1.208,4.591-2.064-3.14-1.171-2.915,1.666-4.586,2.05q.458-1.4.813-2.852c2.417.291,2.686-1.511,4.285-2.525-3.185-.834-2.749,1.853-4.272,2.47q.358-1.469.6-2.977c2.346.172,2.577-1.608,4.128-2.654-3.144-.727-2.714,1.828-4.111,2.55q.209-1.3.332-2.631c2.268-.092,2.345-1.855,3.773-3.031-3.121-.414-2.558,1.957-3.758,2.864q.127-1.436.15-2.9c2.417-.222,2.306-2.039,3.659-3.362-3.284-.151-2.305,2.379-3.658,3.3,0-.187,0-.373,0-.561a40.009,40.009,0,0,0-.321-5.058c2.383-.76,1.836-2.522,2.858-4.137-3.287.618-1.641,2.923-2.86,4.117q-.191-1.5-.493-2.956c2.282-1.1,1.479-2.767,2.26-4.518-3.187,1.093-1.174,3.158-2.26,4.515q-.347-1.689-.837-3.324c2.185-1.215,1.3-2.834,1.988-4.618-3.1,1.252-1.036,3.189-1.994,4.6q-.445-1.485-1-2.92c2-1.46.94-2.961,1.407-4.807-2.912,1.6-.676,3.267-1.419,4.774a39.54,39.54,0,0,0-4.436-8.32c1.281-1.728.015-2.666-.093-4.3h0c-1.963,2.087.37,2.843.092,4.293a39.807,39.807,0,0,0-14.232-12.515,39.306,39.306,0,0,1,16.331,16.723c-1.753-.427-1.708-3.417-5.036-2,1.9.846,2.481,2.763,5.065,2.058q.805,1.583,1.47,3.245c-1.995-.362-1.879-3.727-5.525-2.178,2.065.92,2.682,3.014,5.531,2.194a39.44,39.44,0,0,1,2.011,6.74c-2.134-.319-2.088-3.9-5.916-2.164,2.211.921,2.916,3.125,5.917,2.177q.385,1.894.587,3.849c-1.888-.775-1.372-4.117-5.34-3.061,2,1.257,2.351,3.5,5.347,3.14.126,1.262.2,2.541.2,3.836-1.7-1-.991-4.158-4.967-3.458,1.866,1.408,2.04,3.641,4.969,3.589v.034q0,1.975-.189,3.9c-1.532-1.212-.454-4.235-4.471-4.046,1.67,1.63,1.562,3.863,4.456,4.189q-.182,1.794-.52,3.539c-1.486-1.319-.105-4.29-4.157-4.434,1.536,1.771,1.234,4,4.135,4.55q-.362,1.84-.89,3.613c-1.208-1.519.475-4.219-3.472-4.9,1.273,1.951.686,4.1,3.429,5.053q-.535,1.772-1.225,3.47c-1.172-1.646.972-4.213-2.949-5.371,1.052,2.109.19,4.2,2.914,5.458a39.429,39.429,0,0,1-4.351,7.9c-.617-2.068,2.643-3.547-.554-6.274.105,2.394-1.59,3.969.547,6.284a39.325,39.325,0,0,1-11.51,10.746c.562-2.073,4.1-1.639,2.8-5.628-1.16,2.094-3.427,2.551-2.82,5.637a38.48,38.48,0,0,1-12.258,4.848m-15.719,0a38.506,38.506,0,0,1-12.3-4.873c.591-3.064-1.666-3.524-2.824-5.613-1.292,3.969,2.2,3.56,2.8,5.6a39.317,39.317,0,0,1-11.476-10.742c2.1-2.3.416-3.872.521-6.256-3.174,2.706.016,4.186-.541,6.228a39.338,39.338,0,0,1-4.326-7.875c2.676-1.255,1.828-3.339,2.875-5.438-3.886,1.149-1.814,3.681-2.92,5.328q-.682-1.683-1.212-3.441c2.693-.957,2.12-3.1,3.386-5.038-3.91.679-2.3,3.334-3.438,4.861q-.518-1.756-.877-3.578c2.853-.566,2.562-2.78,4.089-4.541-4.015.143-2.7,3.062-4.116,4.4q-.334-1.729-.516-3.507c2.848-.344,2.75-2.562,4.41-4.184-3.977-.188-2.958,2.774-4.426,4.01q-.184-1.907-.187-3.863v-.033c2.886.029,3.066-2.189,4.923-3.59-3.939-.695-3.282,2.4-4.922,3.43q.009-1.925.2-3.8c2.957.332,3.315-1.9,5.3-3.145-3.936-1.047-3.459,2.232-5.3,3.043q.2-1.94.582-3.819c2.967.915,3.676-1.271,5.877-2.189-3.8-1.725-3.783,1.8-5.871,2.159a39.336,39.336,0,0,1,2-6.723c2.817.79,3.438-1.288,5.494-2.2-3.619-1.537-3.532,1.765-5.479,2.17q.66-1.653,1.463-3.226c2.551.675,3.135-1.227,5.026-2.069-3.3-1.4-3.283,1.52-4.986,1.99a39.543,39.543,0,0,1,1.986-3.447c2.412,1.11,3.226-.657,5.165-1.2-3.017-1.843-3.34,1.166-5.163,1.2a39.451,39.451,0,0,1,6.883-8.039c2.046.944,2.734-.554,4.378-1.012-2.557-1.563-2.829.991-4.376,1.012a38.944,38.944,0,0,1,7.454-5.222,39.785,39.785,0,0,0-18.69,20.885c-.814-1.519,1.5-3.2-1.443-4.821.469,1.857-.6,3.363,1.44,4.831a39.553,39.553,0,0,0-2.648,14.276c0,.2,0,.4.007.594-1.427-.894-.384-3.488-3.707-3.334,1.361,1.332,1.241,3.163,3.707,3.366q.024,1.482.153,2.935c-1.268-.877-.645-3.322-3.809-2.9,1.437,1.183,1.505,2.965,3.821,3.034q.124,1.34.336,2.655c-1.462-.686-.98-3.312-4.163-2.577,1.562,1.053,1.785,2.849,4.175,2.651q.247,1.52.61,3c-1.585-.574-1.1-3.334-4.326-2.491,1.611,1.021,1.874,2.837,4.333,2.52a39.4,39.4,0,0,0,1.9,5.789c-1.719-.274-1.61-3.162-4.709-1.833,1.756.776,2.281,2.555,4.71,1.835A39.666,39.666,0,0,0,344,1134.6c-1.582.7-3.075-1.753-4.928,1.052,1.889-.317,3.3.875,4.933-1.045q.933,1.027,1.933,1.987c-1.624.8-3.391-1.634-5.142,1.477,1.983-.48,3.578.671,5.163-1.457q1.025.982,2.12,1.889c-1.778.691-3.7-1.8-5.61,1.59,2.184-.529,3.949.709,5.7-1.519a39.5,39.5,0,0,0,16.238,8.031c-1.41,1.435-4.09-.559-4.873,3.282,1.906-1.166,3.957-.492,4.884-3.278q.427.1.858.188m35.535-61.916c3.02-1.846,3.341,1.174,5.17,1.2-2.417,1.116-3.23-.654-5.17-1.2Zm7.088-1.676c-.057,1.74,1.193,2.87-.355,4.573.456-1.514-1.951-2.561.355-4.573Zm2.075,2.579c-.286,1.828.885,3.18-.967,4.775.677-1.537-1.726-2.953.967-4.775Zm-4.864,8.217c4.02-1.282,3.535,2.305,5.645,2.849-3.112.607-3.552-1.673-5.645-2.849Zm11.094,7.8c-1.144,1.542-.722,3.349-3.192,3.92,1.363-1.085-.16-3.545,3.192-3.92Zm-10.7,18.281c3.768,1.9.909,4.122,2.035,5.988-2.647-1.746-1.365-3.682-2.035-5.988Zm8.289,4.27c-1.823.6-2.516,2.325-4.866,1.371,1.74-.1,1.908-2.992,4.866-1.371Zm-1.093,3.135c-1.892.326-2.832,1.926-5.015.635,1.736.155,2.331-2.677,5.015-.635Zm-1.265,2.929c-1.92-.036-3.145,1.359-5.045-.32,1.675.479,2.791-2.191,5.045.32Zm-1.921,2.5c-1.92-.035-3.145,1.359-5.047-.32,1.676.48,2.792-2.19,5.047.32Zm-6.741-4.995c2.428,3.452-1.141,4.063-1.028,6.24-1.511-2.789.532-3.892,1.028-6.24Zm-3.082,3.793c1.969,3.732-1.647,3.886-1.811,6.06-1.147-2.958,1.02-3.792,1.811-6.06Zm2.1,10.387c-2.156-.4-3.8.938-5.624-1.309,1.8.854,3.557-1.943,5.624,1.309Zm-2.961,2.285c-2.374-.53-4.247.89-6.182-1.675,1.959,1.019,4.021-2.012,6.182,1.675Zm-6.677-6.67c1.1,4.075-2.464,3.426-3.1,5.51-.464-3.138,1.833-3.472,3.1-5.51Zm-8.073,1.891c2.02,3.7-1.594,3.907-1.728,6.084-1.185-2.943.97-3.806,1.728-6.084Zm6.989,8.361c-2.221-.69-4.118.52-5.763-2.076,1.788,1.123,3.989-1.606,5.763,2.076Zm-2.758-8.314c.791,4.145-2.711,3.235-3.5,5.266-.23-3.164,2.086-3.328,3.5-5.266Zm6.654,6.8c-2.26-.679-4.173.565-5.866-2.053,1.824,1.123,4.032-1.667,5.866,2.053ZM358.6,1072.523c-.934.027-1.5.732-2.462-.041.827.2,1.309-1.129,2.462.041Zm-1.591-1.415c-.3,1.823-1.6.921-2.232,1.636.382-1.334,1.359-1.053,2.232-1.636Zm-.172,2.721c-1.234.034-1.979.966-3.251-.055,1.09.257,1.727-1.491,3.251.055Zm-2.868-1.756c.013,2-1.544,1.277-2.089,2.157.165-1.5,1.26-1.374,2.089-2.157Zm.484,3.07c-1.463.28-2.172,1.533-3.883.562,1.349.1,1.772-2.109,3.883-.562Zm-3.145-2.065c.618,2.149-1.275,1.837-1.6,2.948-.274-1.659.94-1.857,1.6-2.948Zm-2.52,1.313c.939,2.484-1.331,2.3-1.6,3.643-.485-1.937.933-2.288,1.6-3.643Zm.733,5.191c-1.692.473-2.4,2.014-4.506,1.042,1.594-.019,1.874-2.652,4.506-1.042Zm-3.465-3.252c1.281,2.455-1.092,2.544-1.207,3.97-.742-1.945.682-2.485,1.207-3.97Zm1.483,5.9c-1.824.509-2.588,2.172-4.858,1.124,1.719-.021,2.019-2.858,4.858-1.124Zm-4.141-3.574c1.594,2.385-.841,2.743-.8,4.225-.983-1.921.424-2.636.8-4.225Zm-2.505,2.388c1.966,2.089-.377,2.844-.091,4.3-1.286-1.731-.017-2.669.091-4.3Zm-2.077,2.167c2.306,2.012-.1,3.059.355,4.573-1.548-1.7-.3-2.832-.355-4.573Zm-2.075,2.579c2.693,1.822.29,3.238.967,4.775-1.852-1.595-.681-2.947-.967-4.775Zm4.864,8.217c-2.093,1.177-2.533,3.457-5.647,2.849,2.111-.544,1.626-4.132,5.647-2.849Zm-8.247-1.994c3.128,1.264,1,3.223,2.019,4.635-2.225-1.216-1.332-2.842-2.019-4.635Zm-1.11,3.427c3.191,1.094,1.17,3.165,2.264,4.519-2.287-1.094-1.481-2.767-2.264-4.519Zm-1.093,3.357c3.315.623,1.612,2.963,2.892,4.147-2.422-.754-1.865-2.525-2.892-4.147Zm-.644,3.01c3.352.375,1.829,2.835,3.192,3.92-2.47-.571-2.048-2.378-3.192-3.92Zm.544,16.444c3.161-1.179,2.911,1.7,4.619,2.057-2.464.606-2.9-1.2-4.619-2.057Zm10.155,1.837c-.67,2.306.612,4.242-2.035,5.988,1.126-1.866-1.733-4.087,2.035-5.988Zm-8.289,4.27c2.958-1.621,3.126,1.268,4.866,1.371-2.35.954-3.043-.768-4.866-1.371Zm1.092,3.135c2.686-2.042,3.281.79,5.016.635-2.183,1.291-3.123-.309-5.016-.635Zm1.267,2.929c2.253-2.511,3.371.159,5.045-.32-1.9,1.679-3.126.284-5.045.32Zm1.921,2.5c2.254-2.51,3.371.16,5.047-.32-1.9,1.679-3.127.285-5.047.32Zm6.741-4.995c.5,2.349,2.539,3.452,1.028,6.24.113-2.178-3.455-2.789-1.028-6.24Zm3.082,3.793c.79,2.268,2.956,3.1,1.811,6.06-.164-2.174-3.78-2.328-1.811-6.06Zm-2.1,10.387c2.066-3.252,3.826-.454,5.624-1.309-1.826,2.247-3.467.908-5.624,1.309Zm2.96,2.285c2.375-.53,4.248.89,6.184-1.675-1.959,1.019-4.021-2.012-6.184,1.675Zm6.678-6.67c-1.1,4.075,2.464,3.426,3.1,5.51.464-3.138-1.832-3.472-3.1-5.51Zm8.073,1.891c.759,2.279,2.914,3.141,1.727,6.084-.135-2.177-3.747-2.379-1.727-6.084Zm-6.991,8.361c2.223-.69,4.118.52,5.764-2.076-1.788,1.123-3.989-1.606-5.764,2.076Zm2.76-8.314c-.793,4.145,2.711,3.235,3.5,5.266C362.146,1141.759,359.831,1141.595,358.412,1139.657Z" transform="translate(-330.041 -1071.108)" fill="#fff" fill-rule="evenodd"/>
          <g id="Agrupar_1593" data-name="Agrupar 1593" transform="translate(37.893 70.629)">
            <path id="Caminho_608" data-name="Caminho 608" d="M367.961,1135.62c.147-1.053-.391-1.54-1.314-1.926-.761-.319-1.688-.578-2.331-.851-1.116-.473-.839-1.17.019-1.675a8.877,8.877,0,0,1,2.961-.785l-.229-.311a8,8,0,0,0-4.3,1.189,5.485,5.485,0,0,0-.612.53,5.658,5.658,0,0,1,5.142-2.382,12.292,12.292,0,0,1,2.818,5.759,9.379,9.379,0,0,0-2.151.452Zm2.371,3.784a5.659,5.659,0,0,1-3.017,1.242,2.147,2.147,0,0,1-.7-1.821c.182-1.263,1.669-2.281,3.667-2.692a13.633,13.633,0,0,1,.081,2.969c-.008.1-.018.2-.029.3Z" transform="translate(-361.128 -1129.384)" fill="#fff" fill-rule="evenodd"/>
            <path id="Caminho_609" data-name="Caminho 609" d="M363.033,1139.045a5.633,5.633,0,0,1-1.191-6.453c-.019.289.17.537.659.707a11.078,11.078,0,0,1,2.653.96c2.073,1.366.212,3.276-2.121,4.786Zm9.1-1.836a11.509,11.509,0,0,0-3.595-7.638,5.639,5.639,0,0,1,3.595,7.638Zm-5.436,3.419q-.282-.013-.567-.054a5.58,5.58,0,0,1-2.3-.882c.508-.309,1.01-.631,1.482-.96a3,3,0,0,0,1.385,1.9Z" transform="translate(-361.307 -1129.344)" fill="#fff" fill-rule="evenodd"/>
          </g>
        </g>
        <path id="Caminho_662" data-name="Caminho 662" d="M1.2-10.042H5.715a3.063,3.063,0,0,1,2.16.755A2.741,2.741,0,0,1,8.7-7.164a3.086,3.086,0,0,1-.731,2.047,2.771,2.771,0,0,1-2.249.872H2.557V0H1.2ZM7.321-7.157a1.511,1.511,0,0,0-.82-1.5,2.962,2.962,0,0,0-1.237-.212H2.557v3.479H5.264a2.587,2.587,0,0,0,1.487-.39A1.544,1.544,0,0,0,7.321-7.157Zm3.862,5.209a1.013,1.013,0,0,0,.39.841A1.445,1.445,0,0,0,12.5-.8a2.806,2.806,0,0,0,1.258-.3,1.693,1.693,0,0,0,1.025-1.634v-.991a2.105,2.105,0,0,1-.581.239,4.951,4.951,0,0,1-.7.137l-.745.1a2.85,2.85,0,0,0-1,.28A1.092,1.092,0,0,0,11.184-1.948Zm2.98-2.488a.668.668,0,0,0,.567-.355,1.082,1.082,0,0,0,.082-.472,1,1,0,0,0-.448-.913,2.4,2.4,0,0,0-1.282-.284,1.629,1.629,0,0,0-1.367.52,1.709,1.709,0,0,0-.294.854H10.274a2.114,2.114,0,0,1,.878-1.883,3.607,3.607,0,0,1,1.958-.53,3.985,3.985,0,0,1,2.1.492,1.67,1.67,0,0,1,.8,1.531v4.218a.54.54,0,0,0,.079.308.379.379,0,0,0,.332.116q.082,0,.185-.01t.219-.031V.034a3.427,3.427,0,0,1-.437.1,3.2,3.2,0,0,1-.41.021,1.012,1.012,0,0,1-.923-.451,1.741,1.741,0,0,1-.212-.677,3.131,3.131,0,0,1-1.08.854,3.341,3.341,0,0,1-1.552.362,2.308,2.308,0,0,1-1.665-.619A2.055,2.055,0,0,1,9.9-1.921,1.994,1.994,0,0,1,10.534-3.5,3.025,3.025,0,0,1,12.2-4.19Zm3.9-2.885h1.169v1.265a2.794,2.794,0,0,1,.7-.9,1.826,1.826,0,0,1,1.292-.53q.034,0,.116.007l.28.027v1.3a1.838,1.838,0,0,0-.2-.027q-.092-.007-.2-.007a1.756,1.756,0,0,0-1.429.6,2.088,2.088,0,0,0-.5,1.377V0h-1.23Zm4.874-2.044h1.244v2.044h1.169v1H24.179v4.778a.517.517,0,0,0,.26.513,1.1,1.1,0,0,0,.479.075q.089,0,.191,0t.239-.017V0a2.747,2.747,0,0,1-.441.089,4.192,4.192,0,0,1-.5.027,1.336,1.336,0,0,1-1.169-.441,1.959,1.959,0,0,1-.308-1.145V-6.316h-.991v-1h.991Zm3.644,2.078h1.251V0H26.578Zm0-2.755h1.251v1.395H26.578Zm5.934,2.509a3.192,3.192,0,0,1,2.013.6,2.882,2.882,0,0,1,.933,2.071h-1.2a2.208,2.208,0,0,0-.5-1.125,1.576,1.576,0,0,0-1.251-.448A1.729,1.729,0,0,0,30.83-5.284,4.562,4.562,0,0,0,30.5-3.445a3.46,3.46,0,0,0,.465,1.853,1.594,1.594,0,0,0,1.463.752,1.6,1.6,0,0,0,1.213-.468,2.575,2.575,0,0,0,.619-1.282h1.2A3.211,3.211,0,0,1,34.433-.461a3.2,3.2,0,0,1-2.1.673,2.8,2.8,0,0,1-2.29-1.049,4.016,4.016,0,0,1-.854-2.622,4.417,4.417,0,0,1,.937-3A3.026,3.026,0,0,1,32.512-7.533Zm4.177.246h1.251V0H36.688Zm0-2.755h1.251v1.395H36.688Zm6.2,9.215a1.755,1.755,0,0,0,1.432-.721,3.432,3.432,0,0,0,.571-2.157,4.026,4.026,0,0,0-.253-1.5,1.746,1.746,0,0,0-1.75-1.21,1.745,1.745,0,0,0-1.75,1.278A5.066,5.066,0,0,0,40.886-3.4a3.681,3.681,0,0,0,.253,1.442A1.745,1.745,0,0,0,42.889-.827ZM39.7-7.287h1.2v.971a2.987,2.987,0,0,1,.807-.772,2.6,2.6,0,0,1,1.463-.41,2.751,2.751,0,0,1,2.112.954,3.907,3.907,0,0,1,.868,2.724A4.183,4.183,0,0,1,44.9-.4a2.826,2.826,0,0,1-1.846.649,2.505,2.505,0,0,1-1.388-.362,3.2,3.2,0,0,1-.731-.7V2.919H39.7Zm10.931-.2a3.34,3.34,0,0,1,1.511.366,2.786,2.786,0,0,1,1.114.947,3.266,3.266,0,0,1,.492,1.292,8.453,8.453,0,0,1,.109,1.613H48.494a3.131,3.131,0,0,0,.526,1.788,1.762,1.762,0,0,0,1.524.673,1.971,1.971,0,0,0,1.538-.636,2.143,2.143,0,0,0,.465-.854h1.21a2.548,2.548,0,0,1-.318.9,3.2,3.2,0,0,1-.6.81A2.867,2.867,0,0,1,51.447.15a4.216,4.216,0,0,1-1,.109,3.083,3.083,0,0,1-2.317-.995,3.87,3.87,0,0,1-.95-2.786,4.208,4.208,0,0,1,.957-2.864A3.157,3.157,0,0,1,50.634-7.485ZM52.6-4.245a3.188,3.188,0,0,0-.349-1.278,1.787,1.787,0,0,0-1.688-.889,1.872,1.872,0,0,0-1.422.612,2.311,2.311,0,0,0-.608,1.555Zm7.444.67a3.629,3.629,0,0,0,.5,1.969,1.749,1.749,0,0,0,1.6.793,1.685,1.685,0,0,0,1.4-.735,3.47,3.47,0,0,0,.55-2.109,3.118,3.118,0,0,0-.567-2.054,1.77,1.77,0,0,0-1.4-.667,1.85,1.85,0,0,0-1.507.711A3.256,3.256,0,0,0,60.04-3.575Zm1.853-3.876A2.6,2.6,0,0,1,63.3-7.1a3.308,3.308,0,0,1,.745.718v-3.7h1.183V0H64.121V-1.019A2.662,2.662,0,0,1,63.1-.041a2.915,2.915,0,0,1-1.347.3A2.727,2.727,0,0,1,59.637-.769a4.022,4.022,0,0,1-.9-2.738,4.726,4.726,0,0,1,.817-2.772A2.674,2.674,0,0,1,61.893-7.451Zm8.06,6.658a1.7,1.7,0,0,0,1.678-.926,4.615,4.615,0,0,0,.455-2.061,3.67,3.67,0,0,0-.328-1.668A1.846,1.846,0,0,0,69.966-6.46a1.766,1.766,0,0,0-1.641.861,3.992,3.992,0,0,0-.513,2.078,3.473,3.473,0,0,0,.513,1.948A1.806,1.806,0,0,0,69.952-.793ZM70-7.533a3.315,3.315,0,0,1,2.393.943,3.684,3.684,0,0,1,.978,2.775,4.762,4.762,0,0,1-.861,2.926A3.116,3.116,0,0,1,69.836.267a3.017,3.017,0,0,1-2.4-1.022A4.037,4.037,0,0,1,66.548-3.5a4.367,4.367,0,0,1,.937-2.939A3.143,3.143,0,0,1,70-7.533ZM1.2,3.958H5.715a3.063,3.063,0,0,1,2.16.755A2.741,2.741,0,0,1,8.7,6.836a3.086,3.086,0,0,1-.731,2.047,2.771,2.771,0,0,1-2.249.872H2.557V14H1.2ZM7.321,6.843a1.511,1.511,0,0,0-.82-1.5,2.962,2.962,0,0,0-1.237-.212H2.557V8.606H5.264a2.587,2.587,0,0,0,1.487-.39A1.544,1.544,0,0,0,7.321,6.843Zm2.953-.164h1.169V7.943a2.794,2.794,0,0,1,.7-.9,1.826,1.826,0,0,1,1.292-.53q.034,0,.116.007l.28.027v1.3a1.838,1.838,0,0,0-.2-.027q-.092-.007-.2-.007a1.756,1.756,0,0,0-1.429.6,2.088,2.088,0,0,0-.5,1.377V14h-1.23Zm7.677-.164a3.34,3.34,0,0,1,1.511.366,2.786,2.786,0,0,1,1.114.947,3.266,3.266,0,0,1,.492,1.292,8.453,8.453,0,0,1,.109,1.613H15.812a3.131,3.131,0,0,0,.526,1.788,1.763,1.763,0,0,0,1.524.673,1.971,1.971,0,0,0,1.538-.636,2.143,2.143,0,0,0,.465-.854h1.21a2.548,2.548,0,0,1-.318.9,3.2,3.2,0,0,1-.6.81,2.867,2.867,0,0,1-1.388.738,4.216,4.216,0,0,1-1,.109,3.083,3.083,0,0,1-2.317-.995,3.87,3.87,0,0,1-.95-2.786,4.208,4.208,0,0,1,.957-2.864A3.157,3.157,0,0,1,17.951,6.515Zm1.962,3.24a3.188,3.188,0,0,0-.349-1.278,1.787,1.787,0,0,0-1.688-.889,1.872,1.872,0,0,0-1.422.612,2.311,2.311,0,0,0-.608,1.555ZM18.655,3.732,20.05,5.708H18.929L18.006,4.4l-.923,1.313H15.969l1.388-1.976Zm4.033,2.946h1.217V7.718a4.09,4.09,0,0,1,.793-.786,2.385,2.385,0,0,1,1.381-.417,2.173,2.173,0,0,1,1.408.431,2.251,2.251,0,0,1,.547.725A2.66,2.66,0,0,1,29,6.8a2.689,2.689,0,0,1,1.244-.284,2.035,2.035,0,0,1,2.01,1.066,3.486,3.486,0,0,1,.287,1.545V14H31.261V8.914a1.185,1.185,0,0,0-.366-1A1.447,1.447,0,0,0,30,7.636a1.771,1.771,0,0,0-1.248.485,2.131,2.131,0,0,0-.523,1.62V14H26.981V9.222A2.483,2.483,0,0,0,26.8,8.135a1.084,1.084,0,0,0-1.046-.513,1.8,1.8,0,0,0-1.268.54,2.647,2.647,0,0,0-.571,1.955V14h-1.23Zm11.662.034H35.6V14H34.351Zm0-2.755H35.6V5.353H34.351Zm6.016,9.249a1.7,1.7,0,0,0,1.678-.926A4.615,4.615,0,0,0,42.5,10.22a3.67,3.67,0,0,0-.328-1.668A1.846,1.846,0,0,0,40.38,7.54a1.766,1.766,0,0,0-1.641.861,3.992,3.992,0,0,0-.513,2.078,3.473,3.473,0,0,0,.513,1.948A1.806,1.806,0,0,0,40.366,13.207Zm.048-6.74a3.315,3.315,0,0,1,2.393.943,3.684,3.684,0,0,1,.978,2.775,4.762,4.762,0,0,1-.861,2.926,3.116,3.116,0,0,1-2.673,1.155,3.017,3.017,0,0,1-2.4-1.022,4.037,4.037,0,0,1-.889-2.745A4.367,4.367,0,0,1,37.9,7.561,3.143,3.143,0,0,1,40.414,6.467Zm12.742,6.371a3.76,3.76,0,0,0,1.135-.144,2.5,2.5,0,0,0,1.3-1.025,4.2,4.2,0,0,0,.581-1.559,5.945,5.945,0,0,0,.1-1.053,4.9,4.9,0,0,0-.742-2.9,2.74,2.74,0,0,0-2.389-1.032H50.729v7.711Zm-3.794-8.88H53.43a3.834,3.834,0,0,1,3.213,1.47,5.419,5.419,0,0,1,1.019,3.4,6.769,6.769,0,0,1-.6,2.892A3.711,3.711,0,0,1,53.416,14H49.362Zm9.919,2.721H60.45V7.943a2.794,2.794,0,0,1,.7-.9,1.826,1.826,0,0,1,1.292-.53q.034,0,.116.007l.28.027v1.3a1.838,1.838,0,0,0-.2-.027q-.092-.007-.2-.007a1.756,1.756,0,0,0-1.429.6,2.088,2.088,0,0,0-.5,1.377V14h-1.23Zm4.156,5.831h1.429V14H63.438Zm7.684-8.552H72.5V8.107h5.223V3.958h1.374V14H77.718V9.3H72.5V14H71.121ZM84.082,6.515a3.34,3.34,0,0,1,1.511.366,2.786,2.786,0,0,1,1.114.947A3.266,3.266,0,0,1,87.2,9.119a8.453,8.453,0,0,1,.109,1.613H81.942a3.131,3.131,0,0,0,.526,1.788,1.763,1.763,0,0,0,1.524.673,1.971,1.971,0,0,0,1.538-.636A2.143,2.143,0,0,0,86,11.7h1.21a2.548,2.548,0,0,1-.318.9,3.2,3.2,0,0,1-.6.81,2.867,2.867,0,0,1-1.388.738,4.216,4.216,0,0,1-1,.109,3.083,3.083,0,0,1-2.317-.995,3.87,3.87,0,0,1-.95-2.786,4.208,4.208,0,0,1,.957-2.864A3.157,3.157,0,0,1,84.082,6.515Zm1.962,3.24A3.188,3.188,0,0,0,85.7,8.477a1.787,1.787,0,0,0-1.688-.889,1.872,1.872,0,0,0-1.422.612,2.311,2.311,0,0,0-.608,1.555ZM85.5,3.732,83.679,5.708h-.943l1.251-1.976Zm3.35.226h1.23V14h-1.23ZM91.93,6.713h1.251V14H91.93Zm0-2.755h1.251V5.353H91.93Zm6.016,9.249a1.7,1.7,0,0,0,1.678-.926,4.615,4.615,0,0,0,.455-2.061,3.67,3.67,0,0,0-.328-1.668A1.846,1.846,0,0,0,97.959,7.54a1.766,1.766,0,0,0-1.641.861,3.992,3.992,0,0,0-.513,2.078,3.473,3.473,0,0,0,.513,1.948A1.806,1.806,0,0,0,97.945,13.207Zm.048-6.74a3.315,3.315,0,0,1,2.393.943,3.684,3.684,0,0,1,.978,2.775,4.762,4.762,0,0,1-.861,2.926,3.116,3.116,0,0,1-2.673,1.155,3.017,3.017,0,0,1-2.4-1.022,4.037,4.037,0,0,1-.889-2.745,4.367,4.367,0,0,1,.937-2.939A3.143,3.143,0,0,1,97.993,6.467Zm8.853-2.509h1.948l2.885,8.49,2.864-8.49h1.928V14h-1.292V8.073q0-.308.014-1.019t.014-1.524L112.342,14H111L108.11,5.53v.308q0,.369.017,1.125t.017,1.111V14h-1.3Zm14.581,2.557a3.34,3.34,0,0,1,1.511.366,2.786,2.786,0,0,1,1.114.947,3.266,3.266,0,0,1,.492,1.292,8.453,8.453,0,0,1,.109,1.613h-5.366a3.131,3.131,0,0,0,.526,1.788,1.763,1.763,0,0,0,1.524.673,1.971,1.971,0,0,0,1.538-.636,2.143,2.143,0,0,0,.465-.854h1.21a2.548,2.548,0,0,1-.318.9,3.2,3.2,0,0,1-.6.81,2.867,2.867,0,0,1-1.388.738,4.216,4.216,0,0,1-1,.109,3.083,3.083,0,0,1-2.317-.995,3.87,3.87,0,0,1-.95-2.786,4.208,4.208,0,0,1,.957-2.864A3.157,3.157,0,0,1,121.427,6.515Zm1.962,3.24a3.188,3.188,0,0,0-.349-1.278,1.787,1.787,0,0,0-1.688-.889,1.872,1.872,0,0,0-1.422.612,2.311,2.311,0,0,0-.608,1.555Zm2.775-3.076h1.169V7.718a3.279,3.279,0,0,1,1.1-.923,2.935,2.935,0,0,1,1.292-.28A2.13,2.13,0,0,1,131.831,7.6a3.86,3.86,0,0,1,.3,1.7V14h-1.251V9.386a2.5,2.5,0,0,0-.2-1.08,1.2,1.2,0,0,0-1.189-.684,2.422,2.422,0,0,0-.718.089,1.848,1.848,0,0,0-.889.6,1.811,1.811,0,0,0-.4.749,5.039,5.039,0,0,0-.092,1.1V14h-1.23Zm8.565,3.746a3.629,3.629,0,0,0,.5,1.969,1.749,1.749,0,0,0,1.6.793,1.685,1.685,0,0,0,1.4-.735,3.47,3.47,0,0,0,.55-2.109,3.118,3.118,0,0,0-.567-2.054,1.77,1.77,0,0,0-1.4-.667,1.85,1.85,0,0,0-1.507.711A3.256,3.256,0,0,0,134.729,10.425Zm1.853-3.876a2.6,2.6,0,0,1,1.408.355,3.308,3.308,0,0,1,.745.718v-3.7h1.183V14h-1.107V12.981a2.662,2.662,0,0,1-1.019.978,2.915,2.915,0,0,1-1.347.3,2.727,2.727,0,0,1-2.119-1.029,4.022,4.022,0,0,1-.9-2.738,4.726,4.726,0,0,1,.817-2.772A2.674,2.674,0,0,1,136.582,6.549Zm8.2-.034a3.34,3.34,0,0,1,1.511.366,2.786,2.786,0,0,1,1.114.947,3.266,3.266,0,0,1,.492,1.292,8.453,8.453,0,0,1,.109,1.613h-5.366a3.131,3.131,0,0,0,.526,1.788,1.762,1.762,0,0,0,1.524.673,1.971,1.971,0,0,0,1.538-.636,2.143,2.143,0,0,0,.465-.854h1.21a2.549,2.549,0,0,1-.318.9,3.2,3.2,0,0,1-.6.81,2.867,2.867,0,0,1-1.388.738,4.216,4.216,0,0,1-1,.109,3.083,3.083,0,0,1-2.317-.995,3.87,3.87,0,0,1-.95-2.786,4.208,4.208,0,0,1,.957-2.864A3.157,3.157,0,0,1,144.785,6.515Zm1.962,3.24a3.188,3.188,0,0,0-.349-1.278,1.787,1.787,0,0,0-1.688-.889,1.872,1.872,0,0,0-1.422.612,2.311,2.311,0,0,0-.608,1.555Zm3.507,1.948a1.789,1.789,0,0,0,.308.943,1.933,1.933,0,0,0,1.613.595,2.379,2.379,0,0,0,1.2-.3.987.987,0,0,0,.52-.919.786.786,0,0,0-.417-.718,4.958,4.958,0,0,0-1.053-.349l-.978-.246a4.769,4.769,0,0,1-1.381-.52,1.553,1.553,0,0,1-.793-1.381,2.11,2.11,0,0,1,.749-1.682,2.986,2.986,0,0,1,2.013-.643,2.8,2.8,0,0,1,2.386.971,2.107,2.107,0,0,1,.444,1.326h-1.162a1.424,1.424,0,0,0-.294-.759,1.875,1.875,0,0,0-1.47-.485,1.757,1.757,0,0,0-1.056.267.836.836,0,0,0-.359.7.867.867,0,0,0,.472.766,2.834,2.834,0,0,0,.807.3l.813.2a6.29,6.29,0,0,1,1.777.622,1.647,1.647,0,0,1,.718,1.483,2.261,2.261,0,0,1-.742,1.688,3.157,3.157,0,0,1-2.259.711,3.031,3.031,0,0,1-2.314-.742,2.805,2.805,0,0,1-.728-1.835ZM1.682,24.425a3.629,3.629,0,0,0,.5,1.969,1.749,1.749,0,0,0,1.6.793,1.685,1.685,0,0,0,1.4-.735,3.471,3.471,0,0,0,.55-2.109,3.118,3.118,0,0,0-.567-2.054,1.77,1.77,0,0,0-1.4-.667,1.85,1.85,0,0,0-1.507.711A3.256,3.256,0,0,0,1.682,24.425Zm1.853-3.876a2.6,2.6,0,0,1,1.408.355,3.308,3.308,0,0,1,.745.718v-3.7H6.87V28H5.763V26.981a2.662,2.662,0,0,1-1.019.978,2.915,2.915,0,0,1-1.347.3,2.727,2.727,0,0,1-2.119-1.029,4.022,4.022,0,0,1-.9-2.738A4.726,4.726,0,0,1,1.2,21.721,2.674,2.674,0,0,1,3.534,20.549Zm8.2-.034a3.34,3.34,0,0,1,1.511.366,2.786,2.786,0,0,1,1.114.947,3.266,3.266,0,0,1,.492,1.292,8.453,8.453,0,0,1,.109,1.613H9.6a3.131,3.131,0,0,0,.526,1.788,1.763,1.763,0,0,0,1.524.673,1.971,1.971,0,0,0,1.538-.636,2.143,2.143,0,0,0,.465-.854h1.21a2.548,2.548,0,0,1-.318.9,3.2,3.2,0,0,1-.6.81,2.867,2.867,0,0,1-1.388.738,4.216,4.216,0,0,1-1,.109,3.083,3.083,0,0,1-2.317-.995,3.87,3.87,0,0,1-.95-2.786,4.208,4.208,0,0,1,.957-2.864A3.157,3.157,0,0,1,11.737,20.515Zm1.962,3.24a3.188,3.188,0,0,0-.349-1.278,1.787,1.787,0,0,0-1.688-.889,1.872,1.872,0,0,0-1.422.612,2.311,2.311,0,0,0-.608,1.555Zm7.137-5.8H22.21V28H20.836Zm3.418,2.721h1.169v1.039a3.279,3.279,0,0,1,1.1-.923,2.935,2.935,0,0,1,1.292-.28A2.13,2.13,0,0,1,29.921,21.6a3.86,3.86,0,0,1,.3,1.7V28H28.971V23.386a2.5,2.5,0,0,0-.2-1.08,1.2,1.2,0,0,0-1.189-.684,2.422,2.422,0,0,0-.718.089,1.848,1.848,0,0,0-.889.6,1.811,1.811,0,0,0-.4.749,5.039,5.039,0,0,0-.092,1.1V28h-1.23Zm10.609-.212a3.192,3.192,0,0,1,2.013.6,2.882,2.882,0,0,1,.933,2.071h-1.2a2.208,2.208,0,0,0-.5-1.125,1.576,1.576,0,0,0-1.251-.448,1.729,1.729,0,0,0-1.682,1.148,4.562,4.562,0,0,0-.328,1.839,3.46,3.46,0,0,0,.465,1.853,1.8,1.8,0,0,0,2.676.284,2.575,2.575,0,0,0,.619-1.282h1.2a2.893,2.893,0,0,1-3.124,2.8,2.8,2.8,0,0,1-2.29-1.049,4.016,4.016,0,0,1-.854-2.622,4.417,4.417,0,0,1,.937-3A3.026,3.026,0,0,1,34.863,20.467Zm7.226.048a3.34,3.34,0,0,1,1.511.366,2.786,2.786,0,0,1,1.114.947,3.266,3.266,0,0,1,.492,1.292,8.453,8.453,0,0,1,.109,1.613H39.949a3.131,3.131,0,0,0,.526,1.788A1.763,1.763,0,0,0,42,27.193a1.971,1.971,0,0,0,1.538-.636A2.143,2.143,0,0,0,44,25.7h1.21a2.548,2.548,0,0,1-.318.9,3.2,3.2,0,0,1-.6.81,2.867,2.867,0,0,1-1.388.738,4.216,4.216,0,0,1-1,.109,3.083,3.083,0,0,1-2.317-.995,3.87,3.87,0,0,1-.95-2.786,4.208,4.208,0,0,1,.957-2.864A3.157,3.157,0,0,1,42.089,20.515Zm1.962,3.24a3.188,3.188,0,0,0-.349-1.278,1.787,1.787,0,0,0-1.688-.889,1.872,1.872,0,0,0-1.422.612,2.311,2.311,0,0,0-.608,1.555Zm2.775-3.076H48v1.039a3.279,3.279,0,0,1,1.1-.923,2.935,2.935,0,0,1,1.292-.28A2.13,2.13,0,0,1,52.493,21.6a3.86,3.86,0,0,1,.3,1.7V28H51.543V23.386a2.5,2.5,0,0,0-.2-1.08,1.2,1.2,0,0,0-1.189-.684,2.422,2.422,0,0,0-.718.089,1.848,1.848,0,0,0-.889.6,1.811,1.811,0,0,0-.4.749,5.039,5.039,0,0,0-.092,1.1V28h-1.23Zm8.032-2.044H56.1v2.044h1.169v1H56.1v4.778a.517.517,0,0,0,.26.513,1.1,1.1,0,0,0,.479.075q.089,0,.191,0t.239-.017V28a2.747,2.747,0,0,1-.441.089,4.192,4.192,0,0,1-.5.027,1.336,1.336,0,0,1-1.169-.441,1.959,1.959,0,0,1-.308-1.145V21.684h-.991v-1h.991ZM58.5,20.713h1.251V28H58.5Zm0-2.755h1.251v1.395H58.5Zm3.712,2.721,1.955,5.961,2.044-5.961H67.56L64.8,28H63.485l-2.7-7.321Zm9.3,6.528a1.7,1.7,0,0,0,1.678-.926,4.615,4.615,0,0,0,.455-2.061,3.67,3.67,0,0,0-.328-1.668,1.846,1.846,0,0,0-1.791-1.012,1.766,1.766,0,0,0-1.641.861,3.992,3.992,0,0,0-.513,2.078,3.473,3.473,0,0,0,.513,1.948A1.806,1.806,0,0,0,71.518,27.207Zm.048-6.74a3.315,3.315,0,0,1,2.393.943,3.684,3.684,0,0,1,.978,2.775,4.762,4.762,0,0,1-.861,2.926A3.116,3.116,0,0,1,71.4,28.267,3.017,3.017,0,0,1,69,27.245a4.037,4.037,0,0,1-.889-2.745,4.367,4.367,0,0,1,.937-2.939A3.143,3.143,0,0,1,71.565,20.467Zm9.666,5.585a1.013,1.013,0,0,0,.39.841,1.445,1.445,0,0,0,.923.308,2.806,2.806,0,0,0,1.258-.3,1.693,1.693,0,0,0,1.025-1.634v-.991a2.105,2.105,0,0,1-.581.239,4.951,4.951,0,0,1-.7.137l-.745.1a2.85,2.85,0,0,0-1,.28A1.092,1.092,0,0,0,81.231,26.052Zm2.98-2.488a.668.668,0,0,0,.567-.355,1.082,1.082,0,0,0,.082-.472,1,1,0,0,0-.448-.913,2.4,2.4,0,0,0-1.282-.284,1.629,1.629,0,0,0-1.367.52,1.709,1.709,0,0,0-.294.854H80.322a2.114,2.114,0,0,1,.878-1.883,3.607,3.607,0,0,1,1.958-.53,3.985,3.985,0,0,1,2.1.492,1.67,1.67,0,0,1,.8,1.531v4.218a.54.54,0,0,0,.079.308.379.379,0,0,0,.332.116q.082,0,.185-.01t.219-.031v.909a3.427,3.427,0,0,1-.437.1,3.2,3.2,0,0,1-.41.021,1.012,1.012,0,0,1-.923-.451,1.741,1.741,0,0,1-.212-.677,3.131,3.131,0,0,1-1.08.854,3.341,3.341,0,0,1-1.552.362,2.308,2.308,0,0,1-1.665-.619,2.055,2.055,0,0,1-.646-1.548,1.994,1.994,0,0,1,.636-1.579,3.025,3.025,0,0,1,1.668-.69Zm-.13-3.855h-.937l-1.832-1.976h1.524Zm8.176-1.75h4.519a3.063,3.063,0,0,1,2.16.755,2.741,2.741,0,0,1,.82,2.123,3.086,3.086,0,0,1-.731,2.047,2.771,2.771,0,0,1-2.249.872H93.618V28h-1.36Zm6.125,2.885a1.511,1.511,0,0,0-.82-1.5,2.962,2.962,0,0,0-1.237-.212H93.618v3.479h2.707a2.587,2.587,0,0,0,1.487-.39A1.544,1.544,0,0,0,98.383,20.843Zm5.968-.328a3.34,3.34,0,0,1,1.511.366,2.786,2.786,0,0,1,1.114.947,3.266,3.266,0,0,1,.492,1.292,8.453,8.453,0,0,1,.109,1.613h-5.366a3.131,3.131,0,0,0,.526,1.788,1.763,1.763,0,0,0,1.524.673,1.971,1.971,0,0,0,1.538-.636,2.143,2.143,0,0,0,.465-.854h1.21a2.548,2.548,0,0,1-.318.9,3.2,3.2,0,0,1-.6.81,2.867,2.867,0,0,1-1.388.738,4.216,4.216,0,0,1-1,.109,3.083,3.083,0,0,1-2.317-.995,3.87,3.87,0,0,1-.95-2.786,4.208,4.208,0,0,1,.957-2.864A3.157,3.157,0,0,1,104.351,20.515Zm1.962,3.24a3.188,3.188,0,0,0-.349-1.278,1.787,1.787,0,0,0-1.688-.889,1.872,1.872,0,0,0-1.422.612,2.311,2.311,0,0,0-.608,1.555Zm3.507,1.948a1.789,1.789,0,0,0,.308.943,1.933,1.933,0,0,0,1.613.595,2.379,2.379,0,0,0,1.2-.3.987.987,0,0,0,.52-.919.786.786,0,0,0-.417-.718,4.958,4.958,0,0,0-1.053-.349l-.978-.246a4.769,4.769,0,0,1-1.381-.52,1.553,1.553,0,0,1-.793-1.381,2.11,2.11,0,0,1,.749-1.682,2.986,2.986,0,0,1,2.013-.643,2.8,2.8,0,0,1,2.386.971,2.107,2.107,0,0,1,.444,1.326h-1.162a1.424,1.424,0,0,0-.294-.759,1.875,1.875,0,0,0-1.47-.485,1.757,1.757,0,0,0-1.056.267.836.836,0,0,0-.359.7.867.867,0,0,0,.472.766,2.834,2.834,0,0,0,.807.3l.813.2a6.29,6.29,0,0,1,1.777.622,1.647,1.647,0,0,1,.718,1.483,2.261,2.261,0,0,1-.742,1.688,3.157,3.157,0,0,1-2.259.711,3.031,3.031,0,0,1-2.314-.742,2.8,2.8,0,0,1-.728-1.835Zm7.062-1.265a4.169,4.169,0,0,0,.267,1.593,1.694,1.694,0,0,0,1.688,1.142,1.766,1.766,0,0,0,1.771-1.2,4.592,4.592,0,0,0,.267-1.7,3.776,3.776,0,0,0-.294-1.586,1.777,1.777,0,0,0-1.757-1.087,1.722,1.722,0,0,0-1.371.694A3.336,3.336,0,0,0,116.881,24.438Zm1.818-3.924a2.512,2.512,0,0,1,1.531.458,2.716,2.716,0,0,1,.656.725V20.679h1.169v10.24h-1.237v-3.76a2.208,2.208,0,0,1-.851.783,2.855,2.855,0,0,1-1.357.291,2.9,2.9,0,0,1-2.092-.916,3.777,3.777,0,0,1-.923-2.789,4.606,4.606,0,0,1,.865-2.885A2.7,2.7,0,0,1,118.7,20.515Zm6.405.164v4.86a2.049,2.049,0,0,0,.178.916,1.24,1.24,0,0,0,1.224.656,1.73,1.73,0,0,0,1.75-1.148,4.556,4.556,0,0,0,.253-1.688v-3.6h1.23V28h-1.162l.014-1.08a2.482,2.482,0,0,1-.595.7,2.617,2.617,0,0,1-1.709.574,2.2,2.2,0,0,1-2.133-1.046,3.115,3.115,0,0,1-.308-1.5V20.679Zm6.556.034h1.251V28H131.66Zm0-2.755h1.251v1.395H131.66ZM135.5,25.7a1.789,1.789,0,0,0,.308.943,1.933,1.933,0,0,0,1.613.595,2.379,2.379,0,0,0,1.2-.3.987.987,0,0,0,.52-.919.786.786,0,0,0-.417-.718,4.958,4.958,0,0,0-1.053-.349l-.978-.246a4.769,4.769,0,0,1-1.381-.52,1.553,1.553,0,0,1-.793-1.381,2.11,2.11,0,0,1,.749-1.682,2.986,2.986,0,0,1,2.013-.643,2.8,2.8,0,0,1,2.386.971,2.107,2.107,0,0,1,.444,1.326h-1.162a1.424,1.424,0,0,0-.294-.759,1.875,1.875,0,0,0-1.47-.485,1.757,1.757,0,0,0-1.056.267.836.836,0,0,0-.359.7.867.867,0,0,0,.472.766,2.834,2.834,0,0,0,.807.3l.813.2a6.29,6.29,0,0,1,1.777.622,1.647,1.647,0,0,1,.718,1.483,2.261,2.261,0,0,1-.742,1.688,3.157,3.157,0,0,1-2.259.711,3.031,3.031,0,0,1-2.314-.742,2.805,2.805,0,0,1-.728-1.835Zm7.212.349a1.013,1.013,0,0,0,.39.841,1.445,1.445,0,0,0,.923.308,2.806,2.806,0,0,0,1.258-.3,1.693,1.693,0,0,0,1.025-1.634v-.991a2.105,2.105,0,0,1-.581.239,4.952,4.952,0,0,1-.7.137l-.745.1a2.85,2.85,0,0,0-1,.28A1.092,1.092,0,0,0,142.714,26.052Zm2.98-2.488a.668.668,0,0,0,.567-.355,1.082,1.082,0,0,0,.082-.472,1,1,0,0,0-.448-.913,2.4,2.4,0,0,0-1.282-.284,1.629,1.629,0,0,0-1.367.52,1.709,1.709,0,0,0-.294.854H141.8a2.114,2.114,0,0,1,.878-1.883,3.607,3.607,0,0,1,1.958-.53,3.985,3.985,0,0,1,2.1.492,1.67,1.67,0,0,1,.8,1.531v4.218a.54.54,0,0,0,.079.308.379.379,0,0,0,.332.116q.082,0,.185-.01t.219-.031v.909a3.427,3.427,0,0,1-.437.1,3.2,3.2,0,0,1-.41.021,1.012,1.012,0,0,1-.923-.451,1.741,1.741,0,0,1-.212-.677,3.131,3.131,0,0,1-1.08.854,3.341,3.341,0,0,1-1.552.362,2.308,2.308,0,0,1-1.665-.619,2.055,2.055,0,0,1-.646-1.548,1.994,1.994,0,0,1,.636-1.579,3.025,3.025,0,0,1,1.668-.69ZM3.951,34.515a3.34,3.34,0,0,1,1.511.366,2.786,2.786,0,0,1,1.114.947,3.266,3.266,0,0,1,.492,1.292,8.453,8.453,0,0,1,.109,1.613H1.812a3.131,3.131,0,0,0,.526,1.788,1.762,1.762,0,0,0,1.524.673A1.971,1.971,0,0,0,5.4,40.558a2.143,2.143,0,0,0,.465-.854h1.21a2.548,2.548,0,0,1-.318.9,3.2,3.2,0,0,1-.6.81,2.867,2.867,0,0,1-1.388.738,4.216,4.216,0,0,1-1,.109,3.083,3.083,0,0,1-2.317-.995,3.87,3.87,0,0,1-.95-2.786,4.208,4.208,0,0,1,.957-2.864A3.157,3.157,0,0,1,3.951,34.515Zm1.962,3.24a3.188,3.188,0,0,0-.349-1.278,1.787,1.787,0,0,0-1.688-.889,1.872,1.872,0,0,0-1.422.612,2.311,2.311,0,0,0-.608,1.555Zm2.775-3.076H9.905v1.039a4.09,4.09,0,0,1,.793-.786,2.385,2.385,0,0,1,1.381-.417,2.173,2.173,0,0,1,1.408.431,2.251,2.251,0,0,1,.547.725A2.66,2.66,0,0,1,15,34.8a2.689,2.689,0,0,1,1.244-.284,2.035,2.035,0,0,1,2.01,1.066,3.486,3.486,0,0,1,.287,1.545V42H17.261V36.914a1.185,1.185,0,0,0-.366-1A1.447,1.447,0,0,0,16,35.636a1.771,1.771,0,0,0-1.248.485,2.131,2.131,0,0,0-.523,1.62V42H12.981V37.222a2.483,2.483,0,0,0-.178-1.087,1.084,1.084,0,0,0-1.046-.513,1.8,1.8,0,0,0-1.268.54,2.647,2.647,0,0,0-.571,1.955V42H8.688Zm20.05-2.994a4.6,4.6,0,0,1,3.938,1.709,5.538,5.538,0,0,1,1,3.411,5.969,5.969,0,0,1-1.142,3.739,4.527,4.527,0,0,1-3.821,1.75,4.567,4.567,0,0,1-3.644-1.531,5.782,5.782,0,0,1-1.183-3.732A5.936,5.936,0,0,1,24.9,33.544,4.383,4.383,0,0,1,28.738,31.685Zm.137,9.393a2.832,2.832,0,0,0,2.6-1.289,5.485,5.485,0,0,0,.8-2.963,4.227,4.227,0,0,0-.926-2.851,3.162,3.162,0,0,0-2.533-1.08,3.3,3.3,0,0,0-2.543,1.07,4.509,4.509,0,0,0-.984,3.155,4.609,4.609,0,0,0,.844,2.813A3.175,3.175,0,0,0,28.875,41.077Zm6.255-6.4H36.3v1.039a3.279,3.279,0,0,1,1.1-.923,2.935,2.935,0,0,1,1.292-.28A2.13,2.13,0,0,1,40.8,35.6a3.86,3.86,0,0,1,.3,1.7V42H39.847V37.386a2.5,2.5,0,0,0-.2-1.08,1.2,1.2,0,0,0-1.189-.684,2.422,2.422,0,0,0-.718.089,1.848,1.848,0,0,0-.889.6,1.811,1.811,0,0,0-.4.749,5.039,5.039,0,0,0-.092,1.1V42H35.13Zm10.609-.212a3.192,3.192,0,0,1,2.013.6,2.882,2.882,0,0,1,.933,2.071h-1.2a2.208,2.208,0,0,0-.5-1.125,1.576,1.576,0,0,0-1.251-.448,1.729,1.729,0,0,0-1.682,1.148,4.562,4.562,0,0,0-.328,1.839,3.46,3.46,0,0,0,.465,1.853,1.8,1.8,0,0,0,2.676.284,2.575,2.575,0,0,0,.619-1.282h1.2a2.893,2.893,0,0,1-3.124,2.8,2.8,2.8,0,0,1-2.29-1.049,4.016,4.016,0,0,1-.854-2.622,4.417,4.417,0,0,1,.937-3A3.026,3.026,0,0,1,45.739,34.467Zm7.082,6.74a1.7,1.7,0,0,0,1.678-.926,4.615,4.615,0,0,0,.455-2.061,3.67,3.67,0,0,0-.328-1.668,1.846,1.846,0,0,0-1.791-1.012,1.766,1.766,0,0,0-1.641.861,3.992,3.992,0,0,0-.513,2.078,3.473,3.473,0,0,0,.513,1.948A1.806,1.806,0,0,0,52.821,41.207Zm.048-6.74a3.315,3.315,0,0,1,2.393.943,3.684,3.684,0,0,1,.978,2.775,4.762,4.762,0,0,1-.861,2.926,3.116,3.116,0,0,1-2.673,1.155,3.017,3.017,0,0,1-2.4-1.022,4.037,4.037,0,0,1-.889-2.745,4.367,4.367,0,0,1,.937-2.939A3.143,3.143,0,0,1,52.869,34.467Zm4.867-2.509h1.23V42h-1.23Zm5.981,9.249a1.7,1.7,0,0,0,1.678-.926,4.615,4.615,0,0,0,.455-2.061,3.67,3.67,0,0,0-.328-1.668,1.846,1.846,0,0,0-1.791-1.012,1.766,1.766,0,0,0-1.641.861,3.992,3.992,0,0,0-.513,2.078,3.473,3.473,0,0,0,.513,1.948A1.806,1.806,0,0,0,63.718,41.207Zm.048-6.74a3.315,3.315,0,0,1,2.393.943,3.684,3.684,0,0,1,.978,2.775,4.762,4.762,0,0,1-.861,2.926A3.116,3.116,0,0,1,63.6,42.267a3.017,3.017,0,0,1-2.4-1.022,4.037,4.037,0,0,1-.889-2.745,4.367,4.367,0,0,1,.937-2.939A3.143,3.143,0,0,1,63.766,34.467Zm7.417.082a2.668,2.668,0,0,1,1.5.424,3.378,3.378,0,0,1,.711.7v-.923h1.135v6.658a4.91,4.91,0,0,1-.41,2.2A2.945,2.945,0,0,1,71.23,45.1a3.547,3.547,0,0,1-1.989-.53,2.066,2.066,0,0,1-.9-1.658H69.59a1.392,1.392,0,0,0,.355.759,2.25,2.25,0,0,0,3.165-.588,5.621,5.621,0,0,0,.239-2.1,2.414,2.414,0,0,1-.889.834,3.187,3.187,0,0,1-3.456-.571,3.713,3.713,0,0,1-.892-2.792,4.229,4.229,0,0,1,.9-2.871A2.78,2.78,0,0,1,71.183,34.549Zm2.215,3.76a3.052,3.052,0,0,0-.561-2.017,1.8,1.8,0,0,0-1.429-.656,1.764,1.764,0,0,0-1.777,1.217,4.771,4.771,0,0,0-.253,1.7,3.022,3.022,0,0,0,.5,1.883,1.622,1.622,0,0,0,1.35.646,1.9,1.9,0,0,0,1.866-1.2A3.858,3.858,0,0,0,73.4,38.309Zm2.987-3.6h1.251V42H76.385Zm0-2.755h1.251v1.395H76.385Zm4.054,8.094a1.013,1.013,0,0,0,.39.841,1.445,1.445,0,0,0,.923.308,2.806,2.806,0,0,0,1.258-.3,1.693,1.693,0,0,0,1.025-1.634v-.991a2.105,2.105,0,0,1-.581.239,4.951,4.951,0,0,1-.7.137l-.745.1a2.85,2.85,0,0,0-1,.28A1.092,1.092,0,0,0,80.438,40.052Zm2.98-2.488a.668.668,0,0,0,.567-.355,1.082,1.082,0,0,0,.082-.472,1,1,0,0,0-.448-.913,2.4,2.4,0,0,0-1.282-.284,1.629,1.629,0,0,0-1.367.52,1.709,1.709,0,0,0-.294.854H79.529a2.114,2.114,0,0,1,.878-1.883,3.607,3.607,0,0,1,1.958-.53,3.985,3.985,0,0,1,2.1.492,1.67,1.67,0,0,1,.8,1.531v4.218a.54.54,0,0,0,.079.308.379.379,0,0,0,.332.116q.082,0,.185-.01t.219-.031v.909a3.427,3.427,0,0,1-.437.1,3.2,3.2,0,0,1-.41.021,1.012,1.012,0,0,1-.923-.451,1.741,1.741,0,0,1-.212-.677,3.131,3.131,0,0,1-1.08.854,3.341,3.341,0,0,1-1.552.362,2.308,2.308,0,0,1-1.665-.619,2.055,2.055,0,0,1-.646-1.548,1.994,1.994,0,0,1,.636-1.579,3.025,3.025,0,0,1,1.668-.69ZM.861,51.544v-.606a3.222,3.222,0,0,0,1.2-.279,1.375,1.375,0,0,0,.505-.925h.624V56H2.342V51.544Zm5.823-2.175a1.4,1.4,0,0,1,1.015.374,1.478,1.478,0,0,1,.387,1.112,1.607,1.607,0,0,1-.367,1.083,1.342,1.342,0,0,1-1.079.428,1.28,1.28,0,0,1-1.178-.589,1.64,1.64,0,0,1-.242-.888,1.7,1.7,0,0,1,.246-.9A1.324,1.324,0,0,1,6.684,49.369Zm0,.51a.738.738,0,0,0-.6.266,1.389,1.389,0,0,0-.035,1.435.642.642,0,0,0,.578.277.719.719,0,0,0,.7-.417,1.321,1.321,0,0,0,.123-.589,1.049,1.049,0,0,0-.222-.727A.7.7,0,0,0,6.68,49.878Zm4.8-.334h.875v5.687h3.27V56H11.479Zm5.955,0v3.99A2.347,2.347,0,0,0,17.7,54.7a1.386,1.386,0,0,0,1.318.7,1.549,1.549,0,0,0,1.512-.76,2.42,2.42,0,0,0,.215-1.112v-3.99h.888V53.17A4.2,4.2,0,0,1,21.309,55a2.254,2.254,0,0,1-2.224,1.169A2.245,2.245,0,0,1,16.866,55a4.2,4.2,0,0,1-.321-1.833V49.544Zm8.341-.167a3.316,3.316,0,0,1,1.573.352A2.294,2.294,0,0,1,28.525,51.5h-.866A1.572,1.572,0,0,0,27,50.469a2.254,2.254,0,0,0-1.252-.323,1.963,1.963,0,0,0-1.51.672,2.885,2.885,0,0,0-.613,2,3.2,3.2,0,0,0,.505,1.874,1.868,1.868,0,0,0,1.648.723,1.9,1.9,0,0,0,2.035-2.149H25.8v-.725H28.63V56h-.562l-.211-.831a3.316,3.316,0,0,1-.787.677,2.948,2.948,0,0,1-1.463.325,2.851,2.851,0,0,1-1.973-.743,3.524,3.524,0,0,1-.9-2.558,3.668,3.668,0,0,1,.879-2.58A2.794,2.794,0,0,1,25.774,49.377ZM33.3,53.354l-.98-2.852-1.042,2.852Zm-1.437-3.81h.989L35.191,56h-.958l-.655-1.934H31.025L30.327,56h-.9ZM38.988,52.5a1.7,1.7,0,0,0,.973-.246,1,1,0,0,0,.358-.888.952.952,0,0,0-.5-.94A1.637,1.637,0,0,0,39.1,50.3H36.967V52.5Zm-2.9-2.958h2.988a2.98,2.98,0,0,1,1.217.215,1.525,1.525,0,0,1,.91,1.525,1.588,1.588,0,0,1-.91,1.542,1.321,1.321,0,0,1,.569.4,1.452,1.452,0,0,1,.213.813l.031.866a2.661,2.661,0,0,0,.062.549.54.54,0,0,0,.281.4V56H40.381a.807.807,0,0,1-.07-.215,4.133,4.133,0,0,1-.044-.51L40.214,54.2a.9.9,0,0,0-.47-.848,1.945,1.945,0,0,0-.787-.119H36.967V56h-.875ZM42.8,51.355h.918v.958H42.8Zm0,3.687h.918V56H42.8Zm7.69-2.54a1.7,1.7,0,0,0,.973-.246,1,1,0,0,0,.358-.888.952.952,0,0,0-.5-.94A1.637,1.637,0,0,0,50.6,50.3H48.467V52.5Zm-2.9-2.958h2.988a2.98,2.98,0,0,1,1.217.215,1.525,1.525,0,0,1,.91,1.525,1.588,1.588,0,0,1-.91,1.542,1.321,1.321,0,0,1,.569.4,1.452,1.452,0,0,1,.213.813l.031.866a2.661,2.661,0,0,0,.062.549.54.54,0,0,0,.281.4V56H51.882a.807.807,0,0,1-.07-.215,4.133,4.133,0,0,1-.044-.51L51.715,54.2a.9.9,0,0,0-.47-.848,1.945,1.945,0,0,0-.787-.119H48.467V56h-.875Zm8.394,6a1.148,1.148,0,0,0,1.037-.549,1.218,1.218,0,0,0,.149-.611.958.958,0,0,0-.4-.835,2.58,2.58,0,0,0-.782-.316ZM54.5,51.3a.848.848,0,0,0,.288.681,1.672,1.672,0,0,0,.776.343V50.261a1,1,0,0,0-.82.352A1.143,1.143,0,0,0,54.5,51.3Zm-.791.053a1.74,1.74,0,0,1,.49-1.2,1.792,1.792,0,0,1,1.373-.545v-.584h.417V49.6a2.068,2.068,0,0,1,1.343.516,1.673,1.673,0,0,1,.49,1.2H57.05a1.307,1.307,0,0,0-.18-.576,1.01,1.01,0,0,0-.883-.466V52.41a5.2,5.2,0,0,1,1.384.536,1.392,1.392,0,0,1,.593,1.222,1.827,1.827,0,0,1-.76,1.661,2.842,2.842,0,0,1-1.217.36v.853h-.417v-.853a1.966,1.966,0,0,1-1.736-.905,2.444,2.444,0,0,1-.25-1.2h.778a2.158,2.158,0,0,0,.189.879,1.169,1.169,0,0,0,1.011.558v-2.4a2.8,2.8,0,0,1-1.4-.6A1.52,1.52,0,0,1,53.706,51.355Zm9.439,4.816a1.977,1.977,0,0,1-1.619-.613,2.275,2.275,0,0,1-.5-1.492h.826a2.049,2.049,0,0,0,.229.888,1.2,1.2,0,0,0,1.112.5,1.458,1.458,0,0,0,1-.334,1.1,1.1,0,0,0,.378-.861,1,1,0,0,0-.4-.91,2.012,2.012,0,0,0-1.105-.259l-.16,0-.165.007v-.7q.123.013.207.018t.18,0a1.651,1.651,0,0,0,.729-.141.894.894,0,0,0,.5-.879.858.858,0,0,0-.334-.725,1.246,1.246,0,0,0-.778-.255,1.153,1.153,0,0,0-1.094.527,1.828,1.828,0,0,0-.189.826h-.782a2.374,2.374,0,0,1,.281-1.2,1.773,1.773,0,0,1,1.7-.879,2.3,2.3,0,0,1,1.49.428,1.507,1.507,0,0,1,.527,1.241,1.385,1.385,0,0,1-.312.94,1.311,1.311,0,0,1-.5.352,1.365,1.365,0,0,1,.776.525,1.589,1.589,0,0,1,.279.951,1.939,1.939,0,0,1-.593,1.468A2.34,2.34,0,0,1,63.145,56.171Zm3.437-1.129H67.5V56h-.918Zm4.166-5.335a1.859,1.859,0,0,1,1.767,1.006,4.5,4.5,0,0,1,.422,2.131,5.132,5.132,0,0,1-.382,2.123,1.872,1.872,0,0,1-1.811,1.2,1.813,1.813,0,0,1-1.687-.984,4.507,4.507,0,0,1-.461-2.206,5.451,5.451,0,0,1,.277-1.841A1.9,1.9,0,0,1,70.748,49.707Zm-.009,5.744a1.126,1.126,0,0,0,.98-.545,3.945,3.945,0,0,0,.365-2.03,5.016,5.016,0,0,0-.264-1.764,1,1,0,0,0-1.024-.692,1.07,1.07,0,0,0-1.022.657,4.537,4.537,0,0,0-.323,1.936,4.754,4.754,0,0,0,.207,1.547A1.126,1.126,0,0,0,70.739,55.451Zm5.014-5.744a1.859,1.859,0,0,1,1.767,1.006,4.5,4.5,0,0,1,.422,2.131,5.132,5.132,0,0,1-.382,2.123,1.872,1.872,0,0,1-1.811,1.2,1.813,1.813,0,0,1-1.687-.984,4.507,4.507,0,0,1-.461-2.206,5.451,5.451,0,0,1,.277-1.841A1.9,1.9,0,0,1,75.753,49.707Zm-.009,5.744a1.126,1.126,0,0,0,.98-.545,3.945,3.945,0,0,0,.365-2.03,5.016,5.016,0,0,0-.264-1.764,1,1,0,0,0-1.024-.692,1.07,1.07,0,0,0-1.022.657,4.537,4.537,0,0,0-.323,1.936,4.754,4.754,0,0,0,.207,1.547A1.126,1.126,0,0,0,75.744,55.451Zm5.014-5.744a1.859,1.859,0,0,1,1.767,1.006,4.5,4.5,0,0,1,.422,2.131,5.132,5.132,0,0,1-.382,2.123,1.872,1.872,0,0,1-1.811,1.2,1.813,1.813,0,0,1-1.687-.984,4.507,4.507,0,0,1-.461-2.206,5.451,5.451,0,0,1,.277-1.841A1.9,1.9,0,0,1,80.758,49.707Zm-.009,5.744a1.126,1.126,0,0,0,.98-.545,3.945,3.945,0,0,0,.365-2.03,5.016,5.016,0,0,0-.264-1.764,1,1,0,0,0-1.024-.692,1.07,1.07,0,0,0-1.022.657,4.537,4.537,0,0,0-.323,1.936,4.754,4.754,0,0,0,.207,1.547A1.126,1.126,0,0,0,80.75,55.451Zm3.327,1.468a.554.554,0,0,0,.426-.426,1.207,1.207,0,0,0,.066-.382q0-.031,0-.055A.3.3,0,0,0,84.555,56h-.479v-.958h.94v.888a1.923,1.923,0,0,1-.211.918.961.961,0,0,1-.729.488Zm4.188-7.211a1.859,1.859,0,0,1,1.767,1.006,4.5,4.5,0,0,1,.422,2.131,5.132,5.132,0,0,1-.382,2.123,1.872,1.872,0,0,1-1.811,1.2,1.813,1.813,0,0,1-1.687-.984,4.507,4.507,0,0,1-.461-2.206,5.451,5.451,0,0,1,.277-1.841A1.9,1.9,0,0,1,88.264,49.707Zm-.009,5.744a1.126,1.126,0,0,0,.98-.545,3.945,3.945,0,0,0,.365-2.03,5.016,5.016,0,0,0-.264-1.764,1,1,0,0,0-1.024-.692,1.07,1.07,0,0,0-1.022.657,4.537,4.537,0,0,0-.323,1.936,4.754,4.754,0,0,0,.207,1.547A1.126,1.126,0,0,0,88.255,55.451Zm5.014-5.744a1.859,1.859,0,0,1,1.767,1.006,4.5,4.5,0,0,1,.422,2.131,5.132,5.132,0,0,1-.382,2.123,1.872,1.872,0,0,1-1.811,1.2,1.813,1.813,0,0,1-1.687-.984,4.507,4.507,0,0,1-.461-2.206,5.451,5.451,0,0,1,.277-1.841A1.9,1.9,0,0,1,93.27,49.707Zm-.009,5.744a1.126,1.126,0,0,0,.98-.545,3.945,3.945,0,0,0,.365-2.03,5.016,5.016,0,0,0-.264-1.764,1,1,0,0,0-1.024-.692,1.07,1.07,0,0,0-1.022.657,4.537,4.537,0,0,0-.323,1.936,4.754,4.754,0,0,0,.207,1.547A1.126,1.126,0,0,0,93.261,55.451Z" transform="translate(97.344 14.44)" fill="#fff"/>
      </g>
    </g>
  </g>
</svg>
