<svg xmlns="http://www.w3.org/2000/svg" width="567.128" height="148.17" viewBox="0 0 567.128 148.17">
  <g id="Agrupar_1500" data-name="Agrupar 1500" transform="translate(-83.872 -270.591)">
    <path id="Caminho_504" data-name="Caminho 504" d="M8.36-106.4V0H35.568V-106.4ZM78.28,0h32.376l34.352-106.4H115.216L94.392-33.136,73.72-106.4H43.928Z" transform="translate(75.512 392.71)" fill="#fff"/>
    <g id="Agrupar_16" data-name="Agrupar 16" transform="translate(228 270.591)">
      <text id="CONGRESSO_DE_ONCOLOGIA" data-name="CONGRESSO
DE ONCOLOGIA" transform="translate(0 54)" fill="#fff" font-size="57" font-family="Gilroy-ExtraBold, Gilroy" font-weight="800"><tspan x="0" y="0">CONGRESSO</tspan><tspan x="0" y="62">DE ONCOLOGIA</tspan></text>
    </g>
    <path id="Caminho_503" data-name="Caminho 503" d="M9.144-12.6v5.346H3.024V-12.6H1.35V0H3.024V-5.67h6.12V0H10.8V-12.6ZM19.35.234A6.5,6.5,0,0,0,25.884-6.3a6.488,6.488,0,0,0-6.534-6.534A6.473,6.473,0,0,0,12.834-6.3,6.484,6.484,0,0,0,19.35.234Zm0-1.638a4.8,4.8,0,0,1-4.86-4.9,4.808,4.808,0,0,1,4.86-4.914A4.808,4.808,0,0,1,24.21-6.3,4.8,4.8,0,0,1,19.35-1.4ZM31.518.234c2.574,0,4.356-1.4,4.356-3.618,0-2.43-2.07-3.078-4.266-3.8-1.764-.558-2.646-.99-2.646-2.16,0-1.152.936-1.872,2.286-1.872A2.933,2.933,0,0,1,34.11-9.27l1.4-.81a4.529,4.529,0,0,0-4.266-2.754c-2.106,0-3.96,1.3-3.96,3.564,0,2.34,1.944,2.97,3.96,3.618,1.854.576,2.97,1.008,2.97,2.3,0,1.134-.882,1.944-2.664,1.944A3.217,3.217,0,0,1,28.188-3.69l-1.44.828A4.73,4.73,0,0,0,31.518.234ZM42.336-12.6H37.764V0h1.674V-4.5h2.9A3.982,3.982,0,0,0,46.4-8.55,3.971,3.971,0,0,0,42.336-12.6Zm0,6.534h-2.9v-4.968h2.9A2.375,2.375,0,0,1,44.748-8.55,2.385,2.385,0,0,1,42.336-6.066ZM48.384-12.6V0h1.674V-12.6Zm12.438,0h-9.09v1.584H55.44V0H57.1V-11.016h3.726ZM69.858,0H71.64l-4.7-12.6h-1.89L60.354,0h1.782l1.026-2.826h5.67Zm-6.12-4.392,2.25-6.21,2.268,6.21Zm11.07,2.808V-12.6H73.134V0h7.11V-1.584ZM90.486.234c2.574,0,4.356-1.4,4.356-3.618,0-2.43-2.07-3.078-4.266-3.8-1.764-.558-2.646-.99-2.646-2.16,0-1.152.936-1.872,2.286-1.872A2.933,2.933,0,0,1,93.078-9.27l1.4-.81a4.529,4.529,0,0,0-4.266-2.754c-2.106,0-3.96,1.3-3.96,3.564,0,2.34,1.944,2.97,3.96,3.618,1.854.576,2.97,1.008,2.97,2.3,0,1.134-.882,1.944-2.664,1.944A3.217,3.217,0,0,1,87.156-3.69l-1.44.828A4.73,4.73,0,0,0,90.486.234Zm10.476-14.58c1.35.954,2.772.666,2.772-1.764H102.42c0,1.242-.414,1.044-1.3.414-1.332-.954-2.772-.648-2.772,1.782h1.314C99.666-15.174,100.1-14.976,100.962-14.346ZM104.922,0H106.7l-4.7-12.6h-1.89L95.418,0H97.2l1.026-2.826h5.67ZM98.8-4.392l2.25-6.21,2.268,6.21ZM113.6.234A6.5,6.5,0,0,0,120.132-6.3a6.488,6.488,0,0,0-6.534-6.534A6.473,6.473,0,0,0,107.082-6.3,6.484,6.484,0,0,0,113.6.234Zm0-1.638a4.8,4.8,0,0,1-4.86-4.9,4.808,4.808,0,0,1,4.86-4.914,4.808,4.808,0,0,1,4.86,4.914A4.8,4.8,0,0,1,113.6-1.4Zm17.964-11.2h-4.914V0h4.914a6.027,6.027,0,0,0,5.976-6.3A6.027,6.027,0,0,0,131.562-12.6Zm0,11.016h-3.24v-9.432h3.24A4.41,4.41,0,0,1,135.936-6.3,4.41,4.41,0,0,1,131.562-1.584ZM145.422.234A6.5,6.5,0,0,0,151.956-6.3a6.488,6.488,0,0,0-6.534-6.534A6.473,6.473,0,0,0,138.906-6.3,6.484,6.484,0,0,0,145.422.234Zm0-1.638a4.8,4.8,0,0,1-4.86-4.9,4.808,4.808,0,0,1,4.86-4.914,4.808,4.808,0,0,1,4.86,4.914A4.8,4.8,0,0,1,145.422-1.4Zm20.34-11.2h-1.89l-4,6.66-4.014-6.66h-1.89V0h1.674V-9.828l4.122,6.84h.216l4.122-6.858V0h1.656Zm2.7,0V0h1.674V-12.6Zm12.2,0v9.4l-6.48-9.4h-1.35V0h1.674V-9.414L180.99,0h1.35V-12.6ZM197.19-6.246h-6.3v1.512h4.626c-.324,1.89-1.872,3.33-4.482,3.33a4.785,4.785,0,0,1-5-4.9,4.781,4.781,0,0,1,4.932-4.914,4.515,4.515,0,0,1,4.032,2.268l1.44-.846a6.286,6.286,0,0,0-5.454-3.042A6.449,6.449,0,0,0,184.374-6.3,6.458,6.458,0,0,0,191.016.234c3.8,0,6.174-2.52,6.174-5.724Zm7.884,6.48A6.5,6.5,0,0,0,211.608-6.3a6.488,6.488,0,0,0-6.534-6.534A6.473,6.473,0,0,0,198.558-6.3,6.484,6.484,0,0,0,205.074.234Zm0-1.638a4.8,4.8,0,0,1-4.86-4.9,4.808,4.808,0,0,1,4.86-4.914,4.808,4.808,0,0,1,4.86,4.914A4.8,4.8,0,0,1,205.074-1.4ZM217.242.234c2.574,0,4.356-1.4,4.356-3.618,0-2.43-2.07-3.078-4.266-3.8-1.764-.558-2.646-.99-2.646-2.16,0-1.152.936-1.872,2.286-1.872a2.933,2.933,0,0,1,2.862,1.944l1.4-.81a4.529,4.529,0,0,0-4.266-2.754c-2.106,0-3.96,1.3-3.96,3.564,0,2.34,1.944,2.97,3.96,3.618,1.854.576,2.97,1.008,2.97,2.3,0,1.134-.882,1.944-2.664,1.944a3.217,3.217,0,0,1-3.366-2.286l-1.44.828A4.73,4.73,0,0,0,217.242.234Z" transform="translate(228 418.526)" fill="#fff" opacity="0.8"/>
  </g>
</svg>
