<svg id="Agrupar_55" data-name="Agrupar 55" xmlns="http://www.w3.org/2000/svg" width="160.751" height="33.156" viewBox="0 0 160.751 33.156">
  <g id="Agrupar_1473" data-name="Agrupar 1473" transform="translate(0 0)">
    <path id="Caminho_476" data-name="Caminho 476" d="M227.478,245.612c5.98,6.371,9.073,11.416,10.4,22.116a16.608,16.608,0,0,0-10.4-22.116Z" transform="translate(-205.954 -244.861)" fill="#fff"/>
    <path id="Caminho_477" data-name="Caminho 477" d="M209.53,316.513a6.3,6.3,0,0,0,1.928,5.238,16.492,16.492,0,0,0,9.133-3.756c.022-.22.044-.439.064-.661a40.7,40.7,0,0,0-.242-8.819C214.481,309.734,210.07,312.76,209.53,316.513Z" transform="translate(-193.427 -288.629)" fill="#fff"/>
    <path id="Caminho_478" data-name="Caminho 478" d="M169.714,284.54l.015.016c.074-.132.138-.261.2-.389h0a.016.016,0,0,0,0-.005,3.931,3.931,0,0,0,.209-3.284h0c-.027-.065-.056-.129-.086-.192l-.005-.012c-.029-.06-.06-.119-.092-.177l-.011-.019c-.031-.056-.063-.11-.1-.163-.006-.009-.011-.017-.017-.026q-.048-.076-.1-.15l-.022-.031c-.034-.047-.068-.094-.1-.139-.008-.012-.017-.023-.027-.034-.034-.044-.069-.086-.106-.129l-.031-.037c-.035-.04-.071-.08-.106-.119l-.037-.039c-.036-.036-.071-.074-.107-.109l-.042-.041-.106-.1L169,279.32l-.1-.09-.054-.043c-.033-.028-.067-.055-.1-.082l-.058-.044-.1-.073-.063-.044c-.031-.023-.063-.045-.095-.066l-.068-.045-.089-.058-.075-.046-.08-.049-.082-.045-.073-.042-.09-.047-.061-.031-.1-.05-.045-.021c-.048-.023-.1-.043-.143-.063-2.181-1.031-4.634-2.065-6.176-2.759-.1-.045-.194-.091-.286-.137l-.086-.044c-.064-.033-.126-.067-.187-.1-.028-.015-.056-.031-.083-.047-.074-.043-.145-.086-.213-.13l-.028-.018c-.075-.049-.147-.1-.215-.148l-.07-.052c-.047-.035-.092-.071-.136-.106l-.068-.055q-.077-.064-.147-.129l-.032-.029a3.277,3.277,0,0,1-1.1-2.722,16.6,16.6,0,0,0,3.126,19.807C165.217,289.493,168.257,286.991,169.714,284.54Z" transform="translate(-156.721 -263.154)" fill="#fff"/>
    <path id="Caminho_479" data-name="Caminho 479" d="M185.584,334.266c-1.353.943-2.786,1.865-4.238,2.753a16.472,16.472,0,0,0,8.073,2.684A8.708,8.708,0,0,1,185.584,334.266Z" transform="translate(-173.855 -306.546)" fill="#fff"/>
    <path id="Caminho_480" data-name="Caminho 480" d="M182.285,245.021l.679.927c-2.259.33-6.25.837-8.785,2.333s-3.369,3.572-.058,4.975c1.707.724,4.09,1.418,6.192,2.235,1.246.527,4.563,2.277,4.623,6.012a27.75,27.75,0,0,1,6.384-1.342,36.658,36.658,0,0,0-8.207-16.93,16.711,16.711,0,0,0-1.705-.087,16.54,16.54,0,0,0-13.034,6.345c.352-.313.732-.626,1.141-.935C172.264,246.475,177.4,245.1,182.285,245.021Z" transform="translate(-164.829 -243.143)" fill="#fff"/>
  </g>
  <g id="Agrupar_1488" data-name="Agrupar 1488" transform="translate(39.592 6.464)">
    <g id="Agrupar_1474" data-name="Agrupar 1474" transform="translate(0.222 0)">
      <path id="Caminho_481" data-name="Caminho 481" d="M304.246,266.762v-.013a2.385,2.385,0,0,1,4.77-.013v.013a2.385,2.385,0,0,1-4.77.013Zm3.93,0v-.013a1.563,1.563,0,0,0-1.551-1.623,1.541,1.541,0,0,0-1.538,1.609v.013a1.563,1.563,0,0,0,1.551,1.623A1.542,1.542,0,0,0,308.176,266.762Z" transform="translate(-299.184 -264.39)" fill="#fff"/>
      <path id="Caminho_482" data-name="Caminho 482" d="M327.811,264.433" transform="translate(-315.58 -264.42)" fill="#fff"/>
      <rect id="Retângulo_2130" data-name="Retângulo 2130" width="0.801" height="4.562" transform="translate(20.42 0.078)" fill="#fff"/>
      <path id="Caminho_483" data-name="Caminho 483" d="M325.569,266.414c-.873-.208-1.082-.365-1.082-.717v-.013c0-.3.274-.541.743-.541h.013a4,4,0,0,1,1.1.151h0a3.016,3.016,0,0,1,.4.148v-.781a4.865,4.865,0,0,0-1.505-.228,1.4,1.4,0,0,0-1.557,1.323v.013c0,.841.548,1.127,1.519,1.362.848.2,1.03.371,1.03.7v.013c0,.345-.313.573-.808.573-.023,0-.044,0-.067,0v0a3.433,3.433,0,0,1-1.134-.24l-.359-.141v.813a4.107,4.107,0,0,0,1.261.264c.092.009.185.015.278.015.958,0,1.63-.508,1.63-1.362v-.013C327.036,266.994,326.534,266.649,325.569,266.414Z" transform="translate(-312.71 -264.42)" fill="#fff"/>
      <path id="Caminho_484" data-name="Caminho 484" d="M340.683,264.648h-1.8v4.562h.8v-1.467h.906c1,0,1.825-.534,1.825-1.557v-.013A1.535,1.535,0,0,0,340.683,264.648Zm.919,1.557c0,.476-.378.814-.984.814h-.932v-1.642h.932c.6,0,.984.28.984.815Z" transform="translate(-323.285 -264.57)" fill="#fff"/>
      <path id="Caminho_485" data-name="Caminho 485" d="M361.593,264.647v.743h1.446v3.819h.807V265.39h1.447v-.743Z" transform="translate(-339.086 -264.569)" fill="#fff"/>
      <path id="Caminho_486" data-name="Caminho 486" d="M394.572,268.479H392.62v-3.832h-.8v4.562h3.2v-.73Z" transform="translate(-360.118 -264.569)" fill="#fff"/>
      <path id="Caminho_487" data-name="Caminho 487" d="M375.382,264.539h-.743l-2.007,4.6h.82l.133-.312,0-.007.334-.783h2.157l.449,1.1h.861Zm-.073,2.783h-1.094L375,265.5l.788,1.825Z" transform="translate(-346.766 -264.494)" fill="#fff"/>
      <path id="Caminho_488" data-name="Caminho 488" d="M290.916,264.647h-.334v1.9h-2.161v-1.9H287.6v4.562h.817v-1.923h2.161v1.923h.8v-4.562Z" transform="translate(-287.604 -264.569)" fill="#fff"/>
    </g>
    <g id="Agrupar_1487" data-name="Agrupar 1487" transform="translate(0 6.358)">
      <g id="Agrupar_1482" data-name="Agrupar 1482" transform="translate(35.089 2.135)">
        <g id="Agrupar_1475" data-name="Agrupar 1475" transform="translate(11.678 0.092)">
          <path id="Caminho_489" data-name="Caminho 489" d="M446.435,292.612a5.82,5.82,0,1,0,5.82,5.82A5.827,5.827,0,0,0,446.435,292.612Zm0,9.39a3.57,3.57,0,1,1,3.57-3.57A3.574,3.574,0,0,1,446.435,302Z" transform="translate(-440.615 -292.612)" fill="#fff"/>
        </g>
        <g id="Agrupar_1476" data-name="Agrupar 1476" transform="translate(65.206 0.092)">
          <path id="Caminho_490" data-name="Caminho 490" d="M622.4,292.612a5.82,5.82,0,1,0,5.82,5.82A5.827,5.827,0,0,0,622.4,292.612Zm0,9.39a3.57,3.57,0,1,1,3.57-3.57A3.574,3.574,0,0,1,622.4,302Z" transform="translate(-616.583 -292.612)" fill="#fff"/>
        </g>
        <g id="Agrupar_1477" data-name="Agrupar 1477" transform="translate(0 0.289)">
          <path id="Caminho_491" data-name="Caminho 491" d="M407.007,304.488l.062,0a5.617,5.617,0,0,0,0-11.235l-.154,0v0h-4.69v11.235Zm-2.353-2.1h-.091v-7.038h2.443a3.528,3.528,0,0,1,.007,7.038Z" transform="translate(-402.225 -293.257)" fill="#fff"/>
        </g>
        <g id="Agrupar_1478" data-name="Agrupar 1478" transform="translate(38.236 0.289)">
          <path id="Caminho_492" data-name="Caminho 492" d="M527.92,304.5h2.316V293.257H527.92Z" transform="translate(-527.92 -293.257)" fill="#fff"/>
        </g>
        <g id="Agrupar_1479" data-name="Agrupar 1479" transform="translate(77.675 0.059)">
          <path id="Caminho_493" data-name="Caminho 493" d="M657.962,303.466a10.345,10.345,0,0,0,3.608.714h.144a6.489,6.489,0,0,0,.79-.047c.027,0,.051-.006.076-.01l.054-.007a6.686,6.686,0,0,0,.674-.132,3.866,3.866,0,0,0,2.018-1.246,3.227,3.227,0,0,0,.642-1.937,3.268,3.268,0,0,0-1.636-2.825,5.812,5.812,0,0,0-2.086-.673,4.845,4.845,0,0,1-1.859-.431,1.108,1.108,0,0,1-.547-1.53,1.5,1.5,0,0,1,1.033-.669,3.546,3.546,0,0,1,.681-.092l0,0h.252c.107,0,.221.01.339.022a10.3,10.3,0,0,1,1.984.4v0l.18.057a.76.76,0,0,0,.212.03.433.433,0,0,0,.432-.27,1.512,1.512,0,0,0,.039-.342v-1.478a13.777,13.777,0,0,0-3.309-.485l0,0-.253.005a5.651,5.651,0,0,0-1.511.21,3.258,3.258,0,0,0-.524,6.051,7.744,7.744,0,0,0,2.205.529,4.458,4.458,0,0,1,1.772.6,1.12,1.12,0,0,1,.456.9,1.225,1.225,0,0,1-.028.239,1.384,1.384,0,0,1-1.084.934,3.282,3.282,0,0,1-.927.088h-.011s-.031,0-.092,0a9.387,9.387,0,0,1-2.972-.619.931.931,0,0,0-.255-.038.5.5,0,0,0-.465.336.946.946,0,0,0-.03.251Z" transform="translate(-657.573 -292.502)" fill="#fff"/>
        </g>
        <g id="Agrupar_1480" data-name="Agrupar 1480" transform="translate(24.535 0.289)">
          <path id="Caminho_494" data-name="Caminho 494" d="M492.474,296.836v6.816a.789.789,0,0,0,.818.853h1.466V293.257H492.19l-3.37,5.865-3.371-5.865h-2.566V304.5h1.456a.791.791,0,0,0,.827-.853v-6.816l2.776,4.914H489.7Z" transform="translate(-482.882 -293.257)" fill="#fff"/>
        </g>
        <g id="Agrupar_1481" data-name="Agrupar 1481" transform="translate(42.377 0.289)">
          <path id="Caminho_495" data-name="Caminho 495" d="M549.507,304.5h2V293.257h-1.344a.929.929,0,0,0-.956,1.007v6.21l-5.493-7.217h-2.182V304.5h1.436c.318-.025.864-.209.864-1.158v-6.287Z" transform="translate(-541.535 -293.257)" fill="#fff"/>
        </g>
        <path id="Caminho_496" data-name="Caminho 496" d="M587.431,297.447h-3.8v1.383c0,.15.074.665.806.665h2.013v1.456l-.033.027a3.569,3.569,0,1,1-2.9-6.267,7.274,7.274,0,0,1,1.177-.092,7.914,7.914,0,0,1,1.223.095l-.016-.012.4.081a1.641,1.641,0,0,0,.329.037.752.752,0,0,0,.8-.715v-1.3a7.493,7.493,0,0,0-2.389-.487l-.044,0c-.192-.006-.37-.005-.534,0a7.583,7.583,0,0,0-1.987.309,4.5,4.5,0,0,0-1.17.522,6.544,6.544,0,0,0-.617.416,5.905,5.905,0,0,0-.937.868c-.072.082-.125.147-.16.19l-.05.064a5.74,5.74,0,0,0-1.208,3.538,5.815,5.815,0,0,0,10.421,3.554v-4.328Z" transform="translate(-524.756 -292.309)" fill="#fff"/>
      </g>
      <g id="Agrupar_1486" data-name="Agrupar 1486">
        <path id="Caminho_497" data-name="Caminho 497" d="M307.07,319.316" transform="translate(-300.927 -308.966)" fill="#fff"/>
        <g id="Agrupar_1483" data-name="Agrupar 1483" transform="translate(19.798 2.227)">
          <path id="Caminho_498" data-name="Caminho 498" d="M357.778,292.612a5.82,5.82,0,1,0,5.82,5.82A5.827,5.827,0,0,0,357.778,292.612Zm0,9.39a3.57,3.57,0,1,1,3.57-3.57A3.574,3.574,0,0,1,357.778,302Z" transform="translate(-351.958 -292.612)" fill="#fff"/>
        </g>
        <g id="Agrupar_1484" data-name="Agrupar 1484" transform="translate(0 2.194)">
          <path id="Caminho_499" data-name="Caminho 499" d="M287.264,303.466a10.346,10.346,0,0,0,3.608.714h.144a6.483,6.483,0,0,0,.79-.047c.027,0,.052-.006.076-.01l.054-.007a6.648,6.648,0,0,0,.674-.132,3.866,3.866,0,0,0,2.018-1.246,3.225,3.225,0,0,0,.642-1.937,3.268,3.268,0,0,0-1.636-2.825,5.812,5.812,0,0,0-2.086-.673,4.842,4.842,0,0,1-1.859-.431,1.108,1.108,0,0,1-.548-1.53,1.5,1.5,0,0,1,1.033-.669,3.542,3.542,0,0,1,.681-.092l0,0h.252c.107,0,.221.01.339.022a10.31,10.31,0,0,1,1.984.4l0,0,.18.057a.756.756,0,0,0,.211.03.433.433,0,0,0,.433-.27,1.527,1.527,0,0,0,.039-.342v-1.478a13.777,13.777,0,0,0-3.309-.485l0,0-.253.005a5.649,5.649,0,0,0-1.511.21,3.258,3.258,0,0,0-.524,6.051,7.75,7.75,0,0,0,2.205.529,4.457,4.457,0,0,1,1.772.6,1.12,1.12,0,0,1,.456.9,1.2,1.2,0,0,1-.028.239,1.384,1.384,0,0,1-1.084.934,3.28,3.28,0,0,1-.927.088h-.011s-.031,0-.092,0a9.387,9.387,0,0,1-2.972-.619.929.929,0,0,0-.255-.038.5.5,0,0,0-.465.336.946.946,0,0,0-.03.251Z" transform="translate(-286.875 -292.502)" fill="#fff"/>
        </g>
        <g id="Agrupar_1485" data-name="Agrupar 1485" transform="translate(8.622)">
          <path id="Caminho_500" data-name="Caminho 500" d="M330.555,286.628c1.02-.015,1.158-.642,1.174-.879v-.46h-3.211c-1.078,0-1.2.668-1.209.894v.444h3.246Z" transform="translate(-323.631 -285.29)" fill="#fff"/>
          <path id="Caminho_501" data-name="Caminho 501" d="M322.173,292.988H320.04l-4.821,11.33h1.7a1.124,1.124,0,0,0,.97-.741l.566-1.387h5.311l.565,1.387a1.126,1.126,0,0,0,.977.741h1.689Zm-.792,7.275h-2.149l.074-.175,1.8-4.411,1.87,4.586Z" transform="translate(-315.219 -290.646)" fill="#fff"/>
        </g>
      </g>
    </g>
  </g>
</svg>
